<?xml version="1.0" encoding="UTF-8"?>
<svg version="1.1" xmlns="http://www.w3.org/2000/svg" width="343" height="147">
<path d="M0 0 C113.19 0 226.38 0 343 0 C343 48.51 343 97.02 343 147 C229.81 147 116.62 147 0 147 C0 98.49 0 49.98 0 0 Z " fill="#FBFBFB" transform="translate(0,0)"/>
<path d="M0 0 C17.82 0 35.64 0 54 0 C50.86046512 5.23255814 50.86046512 5.23255814 45.875 6.875 C42.99890015 8.19093801 42.99890015 8.19093801 41 11 C39.34263441 18.47553009 39.74742427 26.38769935 40 34 C39.34 34 38.68 34 38 34 C38 34.66 38 35.32 38 36 C36.29241735 36.93886662 34.58389556 37.87602523 32.875 38.8125 C31.44800781 39.59560547 31.44800781 39.59560547 29.9921875 40.39453125 C27.02173866 41.98833605 24.02211843 43.50687621 21 45 C20.99383667 45.86951294 20.99383667 45.86951294 20.98754883 46.7565918 C20.95450723 49.40124109 20.88385736 52.04361839 20.8125 54.6875 C20.80669922 55.59951172 20.80089844 56.51152344 20.79492188 57.45117188 C20.64354791 62.0764874 20.52789851 64.32176705 17.61328125 68.06640625 C15.08403866 69.93781893 12.98752178 71.05657207 10 72 C8.515 72.495 8.515 72.495 7 73 C7 73.66 7 74.32 7 75 C5.0085944 75.38133299 3.00720923 75.71325582 1 76 C-0.66165207 74.33834793 -0.11959725 72.3348397 -0.12442017 70.11598206 C-0.12082489 69.41827194 -0.11722961 68.72056183 -0.11352539 68.00170898 C-0.11367142 67.27004517 -0.11381744 66.53838135 -0.1139679 65.7845459 C-0.11326867 63.35503216 -0.10547585 60.92559417 -0.09765625 58.49609375 C-0.0957921 56.81600486 -0.09436819 55.13591543 -0.09336853 53.45582581 C-0.08954307 49.02526357 -0.07971256 44.5947339 -0.06866455 40.16418457 C-0.05665655 34.85284346 -0.05204832 29.54149148 -0.04621124 24.23014069 C-0.03650081 16.15340444 -0.01734447 8.07673973 0 0 Z " fill="#FDFEFE" transform="translate(0,0)"/>
<path d="M0 0 C3.52626067 0.52654571 6.29658594 2.14177528 9.375 3.875 C13.20452758 6.02169292 17.06137495 8.05973338 21 10 C23.37980538 28.76262967 23.37980538 28.76262967 19.60839844 33.89306641 C16.10436936 36.8613555 12.08516396 38.77227235 7.78466797 40.3269043 C5.8235049 41.00191886 5.8235049 41.00191886 3.55859375 42.50390625 C-0.88481793 43.36545325 -4.09381225 40.52733685 -7.75 38.1875 C-8.52988281 37.70990234 -9.30976562 37.23230469 -10.11328125 36.74023438 C-15.71068948 33.28931052 -15.71068948 33.28931052 -17 32 C-17.08700342 30.36527118 -17.10701063 28.72685945 -17.09765625 27.08984375 C-17.09443359 26.10048828 -17.09121094 25.11113281 -17.08789062 24.09179688 C-17.07951172 23.05087891 -17.07113281 22.00996094 -17.0625 20.9375 C-17.05798828 19.89271484 -17.05347656 18.84792969 -17.04882812 17.77148438 C-17.03699913 15.1809334 -17.02051689 12.59049441 -17 10 C-15.28490234 9.04287109 -15.28490234 9.04287109 -13.53515625 8.06640625 C-12.04422197 7.23185813 -10.55333921 6.39721796 -9.0625 5.5625 C-8.30775391 5.14162109 -7.55300781 4.72074219 -6.77539062 4.28710938 C-6.05673828 3.88427734 -5.33808594 3.48144531 -4.59765625 3.06640625 C-3.93258057 2.69459229 -3.26750488 2.32277832 -2.58227539 1.93969727 C-1.01422168 1.09652286 -1.01422168 1.09652286 0 0 Z " fill="#64AFD0" transform="translate(117,104)"/>
<path d="M0 0 C3.58663899 1.7356323 7.10214491 3.57929547 10.60546875 5.4765625 C12.97734375 6.7553125 15.34921875 8.0340625 17.79296875 9.3515625 C17.79296875 16.9415625 17.79296875 24.5315625 17.79296875 32.3515625 C10.98046875 35.7265625 10.98046875 35.7265625 8.84838867 36.77880859 C6.03754478 38.17797345 3.40927412 39.60735892 0.79296875 41.3515625 C-5.41611144 41.3515625 -10.16072338 37.56648447 -15.20703125 34.3515625 C-16.12742187 34.02285156 -17.0478125 33.69414062 -17.99609375 33.35546875 C-20.20703125 31.3515625 -20.20703125 31.3515625 -20.6003418 29.05371094 C-20.70109498 26.07514628 -20.64133733 23.14175262 -20.51953125 20.1640625 C-20.49697266 19.12830078 -20.47441406 18.09253906 -20.45117188 17.02539062 C-20.39219971 14.46599846 -20.30995692 11.90950299 -20.20703125 9.3515625 C-19.49417969 8.96484375 -18.78132813 8.578125 -18.046875 8.1796875 C-17.08910156 7.65890625 -16.13132812 7.138125 -15.14453125 6.6015625 C-14.14035156 6.06015625 -13.13617188 5.51875 -12.1015625 4.9609375 C-9.77411662 3.66686503 -7.56442385 2.29692534 -5.33203125 0.8515625 C-2.20703125 -0.6484375 -2.20703125 -0.6484375 0 0 Z " fill="#69B3D3" transform="translate(80.20703125,104.6484375)"/>
<path d="M0 0 C1.81757812 0.64001953 1.81757812 0.64001953 3.671875 1.29296875 C8.05081158 3.19690029 12.02662617 5.16412839 15 9 C17.44558855 15.93740186 17.20006563 24.0175636 15 31 C11.11867739 35.92426303 6.51160898 37.22811072 0.6953125 39.015625 C-2.13618658 39.7000975 -2.13618658 39.7000975 -3 42 C-5.98068713 40.356909 -8.95928668 38.71007008 -11.9375 37.0625 C-12.78763672 36.59392578 -13.63777344 36.12535156 -14.51367188 35.64257812 C-15.32255859 35.19462891 -16.13144531 34.74667969 -16.96484375 34.28515625 C-17.7137085 33.87144775 -18.46257324 33.45773926 -19.23413086 33.03149414 C-21 32 -21 32 -22 31 C-22.08700342 29.36527118 -22.10701063 27.72685945 -22.09765625 26.08984375 C-22.09443359 25.10048828 -22.09121094 24.11113281 -22.08789062 23.09179688 C-22.07951172 22.05087891 -22.07113281 21.00996094 -22.0625 19.9375 C-22.05798828 18.89271484 -22.05347656 17.84792969 -22.04882812 16.77148438 C-22.03699913 14.1809334 -22.02051689 11.59049441 -22 9 C-19.09465435 7.29241747 -16.17416582 5.61261646 -13.25 3.9375 C-12.0125 3.20950195 -12.0125 3.20950195 -10.75 2.46679688 C-9.95078125 2.01240234 -9.1515625 1.55800781 -8.328125 1.08984375 C-7.5949707 0.66566162 -6.86181641 0.24147949 -6.10644531 -0.19555664 C-3.55124674 -1.17137714 -2.53615843 -0.92103261 0 0 Z " fill="#70B7D5" transform="translate(42,36)"/>
<path d="M0 0 C2.51164578 1.21212984 4.81324996 2.44102244 7.1875 3.875 C7.81591797 4.23980469 8.44433594 4.60460937 9.09179688 4.98046875 C11.65353593 6.48737408 13.89058365 7.89058365 16 10 C17.64680373 16.92062186 18.13233872 25.1765161 16 32 C11.99874092 37.12944284 5.31571203 40.61478397 -1 42 C-3.59765625 41.47265625 -3.59765625 41.47265625 -6 40 C-7.1710664 39.36179528 -8.3430152 38.72520824 -9.515625 38.08984375 C-10.76234047 37.37574407 -12.00710314 36.65822546 -13.25 35.9375 C-14.20519531 35.39125977 -14.20519531 35.39125977 -15.1796875 34.83398438 C-19.85925752 32.14074248 -19.85925752 32.14074248 -21 31 C-23.31806558 13.40257076 -23.31806558 13.40257076 -19.23828125 7.4140625 C-16.8721624 5.89556857 -14.64680369 4.93292443 -12 4 C-10.73655535 3.2299716 -9.48486864 2.44006782 -8.25 1.625 C-4.83044677 -0.08477662 -3.70463464 -0.46373805 0 0 Z " fill="#69B4D6" transform="translate(61,1)"/>
<path d="M0 0 C0.78375 0.515625 1.5675 1.03125 2.375 1.5625 C3.55595895 2.21572379 4.7398047 2.86374342 5.92578125 3.5078125 C7.18160235 4.23106025 8.43547984 4.95769216 9.6875 5.6875 C10.33267578 6.06003906 10.97785156 6.43257813 11.64257812 6.81640625 C13.22175945 7.72882213 14.79861864 8.64525509 16.375 9.5625 C16.63775596 13.1027436 16.79660329 16.64048133 16.9375 20.1875 C17.01291016 21.18652344 17.08832031 22.18554688 17.16601562 23.21484375 C17.25603011 26.23532984 17.20434153 28.65199645 16.375 31.5625 C13.71918435 34.31656508 10.79064476 35.90000555 7.375 37.5625 C5.95470549 38.36864155 4.53734912 39.18001789 3.125 40 C-0.1838758 41.8029131 -2.01769448 41.60631607 -5.625 40.5625 C-11.22852703 38.64046119 -17.02671034 36.4991009 -20.625 31.5625 C-22.52376344 24.44415707 -21.54115012 16.78552149 -20.625 9.5625 C-17.74609696 7.82434498 -14.84480951 6.12763984 -11.9375 4.4375 C-11.12087891 3.94378906 -10.30425781 3.45007813 -9.46289062 2.94140625 C-3.3696258 -0.5616043 -3.3696258 -0.5616043 0 0 Z " fill="#64AFCF" transform="translate(40.625,104.4375)"/>
<path d="M0 0 C4.30934203 1.18135411 7.99352057 3.70309326 11.75 6.0625 C12.33910156 6.42666016 12.92820312 6.79082031 13.53515625 7.16601562 C17.84776311 9.84776311 17.84776311 9.84776311 19 11 C21.46886372 28.50568304 21.46886372 28.50568304 17.015625 34.80859375 C14.41231458 36.57963372 11.90928646 37.80906402 9 39 C7.71997134 39.84032416 6.44765586 40.6926579 5.1875 41.5625 C2 43 2 43 -0.24609375 42.34375 C-3.66522917 40.67540591 -6.95977565 38.84542055 -10.25 36.9375 C-11.20519531 36.39125977 -11.20519531 36.39125977 -12.1796875 35.83398438 C-16.85925752 33.14074248 -16.85925752 33.14074248 -18 32 C-19.24652501 25.26876493 -19.92022651 17.628133 -18 11 C-14.28380388 6.20896562 -8.47323598 4.18331271 -3 2 C-2.01 1.34 -1.02 0.68 0 0 Z " fill="#6BB5D4" transform="translate(18,69)"/>
<path d="M0 0 C3.63 0 7.26 0 11 0 C13.64164276 2.98703915 14.97872622 4.90387359 16.625 8.375 C17.04394531 9.1690625 17.46289062 9.963125 17.89453125 10.78125 C18.97116997 12.83696794 19.99698575 14.90767227 21 17 C21.33 17.66 21.66 18.32 22 19 C22.33 12.73 22.66 6.46 23 0 C26.63 0 30.26 0 34 0 C34 13.86 34 27.72 34 42 C30.37 42 26.74 42 23 42 C20.2859838 38.83364777 18.78471304 36.62383806 17 33 C16.04593335 31.31008407 15.08782393 29.62244187 14.125 27.9375 C13.42375 26.638125 12.7225 25.33875 12 24 C11.67 29.94 11.34 35.88 11 42 C7.37 42 3.74 42 0 42 C0 28.14 0 14.28 0 0 Z " fill="#333333" transform="translate(163,19)"/>
<path d="M0 0 C5.506875 -0.12375 5.506875 -0.12375 11.125 -0.25 C12.2711377 -0.28641602 13.41727539 -0.32283203 14.59814453 -0.36035156 C20.72617886 -0.42697231 24.39781897 -0.19477484 29 4 C31.42136226 7.63204338 31.32929639 9.55143835 31.375 13.875 C31.40335937 15.08929688 31.43171875 16.30359375 31.4609375 17.5546875 C30.92447975 21.56448183 29.63439218 23.02719775 27 26 C27 30.67069034 28.97498799 34.25300285 31.16015625 38.265625 C32 40 32 40 32 42 C27.71 42 23.42 42 19 42 C18.51080078 40.50146484 18.51080078 40.50146484 18.01171875 38.97265625 C17.57093452 37.66906034 17.12949414 36.36568617 16.6875 35.0625 C16.36749023 34.0734668 16.36749023 34.0734668 16.04101562 33.06445312 C15.44958907 31.34313703 14.73136173 29.66668068 14 28 C13.01 27.67 12.02 27.34 11 27 C11 31.95 11 36.9 11 42 C7.37 42 3.74 42 0 42 C0 28.14 0 14.28 0 0 Z " fill="#333333" transform="translate(269,19)"/>
<path d="M0 0 C4.29 0 8.58 0 13 0 C13.61488281 1.98902344 14.22976563 3.97804688 14.86328125 6.02734375 C15.46876045 7.98355228 16.07457475 9.93965674 16.68041992 11.89575195 C17.09678486 13.24069595 17.51280905 14.58574548 17.9284668 15.9309082 C18.53081058 17.88000862 19.13433966 19.82873789 19.73828125 21.77734375 C20.1245166 23.02370605 20.51075195 24.27006836 20.90869141 25.55419922 C21.82628948 28.45151001 22.79260533 31.32205108 23.79296875 34.19140625 C25 38 25 38 25 42 C21.37 42 17.74 42 14 42 C13.01 38.535 13.01 38.535 12 35 C8.04 35 4.08 35 0 35 C-0.66 37.31 -1.32 39.62 -2 42 C-5.63 42 -9.26 42 -13 42 C-11.4585339 34.47636754 -9.33571537 27.2076837 -7.0625 19.875 C-6.71509766 18.73417969 -6.36769531 17.59335937 -6.00976562 16.41796875 C-4.27555165 10.79402059 -2.47071882 5.34418805 0 0 Z " fill="#323232" transform="translate(317,19)"/>
<path d="M0 0 C0.77021484 0.01160156 1.54042969 0.02320312 2.33398438 0.03515625 C3.11966797 0.07253906 3.90535156 0.10992188 4.71484375 0.1484375 C5.89916992 0.16970703 5.89916992 0.16970703 7.10742188 0.19140625 C11.0591194 0.29077836 14.7971283 0.57708683 18.65234375 1.5234375 C18.65234375 4.8234375 18.65234375 8.1234375 18.65234375 11.5234375 C12.71234375 11.5234375 6.77234375 11.5234375 0.65234375 11.5234375 C0.65234375 13.5034375 0.65234375 15.4834375 0.65234375 17.5234375 C5.60234375 17.5234375 10.55234375 17.5234375 15.65234375 17.5234375 C15.65234375 20.8234375 15.65234375 24.1234375 15.65234375 27.5234375 C10.70234375 27.5234375 5.75234375 27.5234375 0.65234375 27.5234375 C0.65234375 29.1734375 0.65234375 30.8234375 0.65234375 32.5234375 C6.59234375 32.5234375 12.53234375 32.5234375 18.65234375 32.5234375 C18.65234375 35.8234375 18.65234375 39.1234375 18.65234375 42.5234375 C13.76684037 43.47576225 9.04883109 43.7709726 4.08984375 43.8359375 C3.34798828 43.86494141 2.60613281 43.89394531 1.84179688 43.92382812 C-2.08525509 43.96928821 -3.91164539 43.80204786 -7.3125 41.62890625 C-11.93530065 36.84639272 -10.68497352 30.25477715 -10.75268555 23.9753418 C-10.77425901 22.47087642 -10.80835563 20.96653636 -10.85522461 19.46264648 C-10.92234338 17.28833281 -10.94969663 15.11661057 -10.96875 12.94140625 C-10.99380615 11.63969482 -11.0188623 10.3379834 -11.04467773 8.99682617 C-10.33700685 5.47036954 -10.09979706 4.84325706 -7.58056641 2.5925293 C-3.37836349 -0.09691865 -3.37836349 -0.09691865 0 0 Z " fill="#393939" transform="translate(140.34765625,18.4765625)"/>
<path d="M0 0 C1.12728516 -0.00580078 1.12728516 -0.00580078 2.27734375 -0.01171875 C6.54532621 -0.00427026 10.54687789 0.28169843 14.75 1.125 C14.75 4.095 14.75 7.065 14.75 10.125 C6.335 10.62 6.335 10.62 -2.25 11.125 C-2.58 13.105 -2.91 15.085 -3.25 17.125 C1.7 17.125 6.65 17.125 11.75 17.125 C11.75 20.425 11.75 23.725 11.75 27.125 C6.8 27.125 1.85 27.125 -3.25 27.125 C-3.25 28.775 -3.25 30.425 -3.25 32.125 C2.69 32.125 8.63 32.125 14.75 32.125 C14.75 35.425 14.75 38.725 14.75 42.125 C10.6669058 42.24114929 6.58423623 42.31223457 2.5 42.375 C1.34113281 42.40851562 0.18226563 42.44203125 -1.01171875 42.4765625 C-2.68427734 42.49589844 -2.68427734 42.49589844 -4.390625 42.515625 C-5.41704102 42.53657227 -6.44345703 42.55751953 -7.50097656 42.57910156 C-10.25 42.125 -10.25 42.125 -12.58300781 40.55151367 C-14.8622829 37.23374638 -14.76721277 34.91703213 -14.78125 30.91015625 C-14.7850769 30.21740097 -14.78890381 29.52464569 -14.79284668 28.81089783 C-14.79556212 27.34925886 -14.78822639 25.88757099 -14.77148438 24.42602539 C-14.75009711 22.19761846 -14.77127643 19.97244664 -14.796875 17.74414062 C-14.79423102 16.32030543 -14.78910457 14.89647224 -14.78125 13.47265625 C-14.77673828 12.18367432 -14.77222656 10.89469238 -14.76757812 9.56665039 C-14.16975312 5.5913961 -13.05559448 3.94598465 -10.25 1.125 C-7.02994193 -0.48502904 -3.53321844 -0.01781455 0 0 Z " fill="#363636" transform="translate(250.25,18.875)"/>
<path d="M0 0 C3.63 1.98 7.26 3.96 11 6 C14.3 7.65 17.6 9.3 21 11 C21 18.92 21 26.84 21 35 C27.93 38.96 27.93 38.96 35 43 C35 43.99 35 44.98 35 46 C23.45 46 11.9 46 0 46 C0 30.82 0 15.64 0 0 Z " fill="#FBFDFE" transform="translate(0,101)"/>
<path d="M0 0 C10.89 0 21.78 0 33 0 C33 3.3 33 6.6 33 10 C29.37 10 25.74 10 22 10 C22 20.56 22 31.12 22 42 C18.37 42 14.74 42 11 42 C11 31.44 11 20.88 11 10 C7.37 10 3.74 10 0 10 C0 6.7 0 3.4 0 0 Z " fill="#323232" transform="translate(200,19)"/>
<path d="M0 0 C3.96 0 7.92 0 12 0 C12.33 10.56 12.66 21.12 13 32 C19.93 32.495 19.93 32.495 27 33 C27 35.97 27 38.94 27 42 C23.43793278 42.14567407 19.87663449 42.23419196 16.3125 42.3125 C15.30509766 42.35439453 14.29769531 42.39628906 13.25976562 42.43945312 C11.79506836 42.46362305 11.79506836 42.46362305 10.30078125 42.48828125 C9.40528564 42.51446533 8.50979004 42.54064941 7.5871582 42.56762695 C3.71434168 41.71792436 2.32429288 40.17680882 0 37 C-0.65250555 34.11991668 -0.58513657 31.35864736 -0.48828125 28.41796875 C-0.48120651 27.60378983 -0.47413177 26.7896109 -0.46684265 25.95075989 C-0.43895598 23.36205357 -0.37623316 20.77554727 -0.3125 18.1875 C-0.2874095 16.42776572 -0.26459764 14.66799737 -0.24414062 12.90820312 C-0.18914872 8.60462704 -0.10291992 4.3026859 0 0 Z " fill="#424242" transform="translate(99,19)"/>
<path d="M0 0 C3.875 0.875 3.875 0.875 5 2 C5.22779503 3.48937144 5.39488165 4.98813429 5.53515625 6.48828125 C5.66591553 7.88216064 5.66591553 7.88216064 5.79931641 9.30419922 C5.88616699 10.29693848 5.97301758 11.28967773 6.0625 12.3125 C6.15192871 13.31039551 6.24135742 14.30829102 6.33349609 15.33642578 C6.92349024 22.24890954 7.26349794 29.06122104 7 36 C-8.76788887 30.91976833 -8.76788887 30.91976833 -12 26 C-13.66731195 18.84451045 -12.78888238 11.23717891 -12 4 C-9.03488271 2.43055147 -7.12367395 1.7625442 -3.75 1.875 C-1.89375 1.936875 -1.89375 1.936875 0 2 C0 1.34 0 0.68 0 0 Z " fill="#60ADD0" transform="translate(32,110)"/>
<path d="M0 0 C0.33 0 0.66 0 1 0 C1 13.86 1 27.72 1 42 C0.67 42 0.34 42 0 42 C-0.33 40.02 -0.66 38.04 -1 36 C-1.33 37.98 -1.66 39.96 -2 42 C-2.33 42 -2.66 42 -3 42 C-3 38.7 -3 35.4 -3 32 C-8.94 32 -14.88 32 -21 32 C-21 30.35 -21 28.7 -21 27 C-16.05 27 -11.1 27 -6 27 C-6 23.7 -6 20.4 -6 17 C-10.95 17 -15.9 17 -21 17 C-21 11 -21 11 -20 10 C-17.13732433 9.92674832 -14.299281 9.90761795 -11.4375 9.9375 C-10.63119141 9.94201172 -9.82488281 9.94652344 -8.99414062 9.95117188 C-6.99606244 9.96299482 -4.99802217 9.98093086 -3 10 C-3 7.03 -3 4.06 -3 1 C-2.67 1 -2.34 1 -2 1 C-1.67 4.3 -1.34 7.6 -1 11 C-0.67 7.37 -0.34 3.74 0 0 Z " fill="#ECECEC" transform="translate(268,19)"/>
<path d="M0 0 C0.33 0 0.66 0 1 0 C1.63793798 11.11075312 1.63793798 11.11075312 -1.0625 14.875 C-1.701875 15.57625 -2.34125 16.2775 -3 17 C-3 21.67069034 -1.02501201 25.25300285 1.16015625 29.265625 C2 31 2 31 2 33 C-2.29 33 -6.58 33 -11 33 C-11.33773438 32.00097656 -11.67546875 31.00195312 -12.0234375 29.97265625 C-12.47357336 28.66913783 -12.92411525 27.36575957 -13.375 26.0625 C-13.59671875 25.40314453 -13.8184375 24.74378906 -14.046875 24.06445312 C-15.12909152 20.32423336 -15.12909152 20.32423336 -18 18 C-18 16.68 -18 15.36 -18 14 C-17.01 13.67 -16.02 13.34 -15 13 C-14.67 12.34 -14.34 11.68 -14 11 C-15.65 11 -17.3 11 -19 11 C-19 10.67 -19 10.34 -19 10 C-16.36 9.67 -13.72 9.34 -11 9 C-10.34 7.35 -9.68 5.7 -9 4 C-8.34 4.33 -7.68 4.66 -7 5 C-3.27641285 3.88292386 -2.2180224 3.3270336 0 0 Z " fill="#343434" transform="translate(299,28)"/>
<path d="M0 0 C-0.11391632 2.60508636 -0.24065548 5.20845546 -0.375 7.8125 C-0.42140625 8.91948242 -0.42140625 8.91948242 -0.46875 10.04882812 C-0.67346148 13.81893115 -0.86433827 15.79650741 -3 19 C-3.66 19 -4.32 19 -5 19 C-5 19.99 -5 20.98 -5 22 C-6.32 22 -7.64 22 -9 22 C-9.165 22.61875 -9.33 23.2375 -9.5 23.875 C-11.90181375 27.27756949 -15.00162134 27.22612026 -19 28 C-20.20987569 13.85117592 -20.20987569 13.85117592 -17.5703125 9.8125 C-15.4589988 8.25233245 -13.3664047 7.13587426 -11 6 C-9.18212101 4.88371276 -7.36959596 3.7586602 -5.5625 2.625 C-1.15384615 0 -1.15384615 0 0 0 Z " fill="#5DACCF" transform="translate(37,80)"/>
<path d="M0 0 C1.79244141 0.01740234 1.79244141 0.01740234 3.62109375 0.03515625 C5.41740234 0.04869141 5.41740234 0.04869141 7.25 0.0625 C8.17683594 0.07410156 9.10367187 0.08570312 10.05859375 0.09765625 C11.08254138 3.09123562 11.88899791 5.928334 12.05859375 9.09765625 C9.87109375 12.16015625 9.87109375 12.16015625 7.05859375 14.09765625 C6.06859375 14.09765625 5.07859375 14.09765625 4.05859375 14.09765625 C4.38859375 15.14953125 4.71859375 16.20140625 5.05859375 17.28515625 C5.89826157 20.48638982 6.25610279 22.83875705 6.05859375 26.09765625 C4.07859375 26.09765625 2.09859375 26.09765625 0.05859375 26.09765625 C0.71859375 22.79765625 1.37859375 19.49765625 2.05859375 16.09765625 C0.73859375 17.08765625 -0.58140625 18.07765625 -1.94140625 19.09765625 C-2.93140625 19.42765625 -3.92140625 19.75765625 -4.94140625 20.09765625 C-5.27140625 19.10765625 -5.60140625 18.11765625 -5.94140625 17.09765625 C-6.93140625 17.09765625 -7.92140625 17.09765625 -8.94140625 17.09765625 C-8.1326717 14.45061734 -7.31961934 11.80504415 -6.50390625 9.16015625 C-6.27380859 8.40541016 -6.04371094 7.65066406 -5.80664062 6.87304688 C-3.71819916 0.12344619 -3.71819916 0.12344619 0 0 Z " fill="#373737" transform="translate(319.94140625,18.90234375)"/>
<path d="M0 0 C2.51164578 1.21212984 4.81324996 2.44102244 7.1875 3.875 C7.81591797 4.23980469 8.44433594 4.60460937 9.09179688 4.98046875 C11.65353593 6.48737408 13.89058365 7.89058365 16 10 C16.22705078 12.24658203 16.22705078 12.24658203 16.1953125 15.0078125 C16.18886719 15.99394531 16.18242188 16.98007812 16.17578125 17.99609375 C16.15902344 19.02863281 16.14226562 20.06117187 16.125 21.125 C16.11597656 22.16527344 16.10695312 23.20554687 16.09765625 24.27734375 C16.07403747 26.85179092 16.04110149 29.42578212 16 32 C15.67 32 15.34 32 15 32 C14.34 24.74 13.68 17.48 13 10 C12.34 10 11.68 10 11 10 C10.67 9.34 10.34 8.68 10 8 C8.845 7.67 7.69 7.34 6.5 7 C5.345 6.67 4.19 6.34 3 6 C2.67 5.34 2.34 4.68 2 4 C-3.01535052 4.32960216 -3.01535052 4.32960216 -7 7 C-9.625 7.625 -9.625 7.625 -12 8 C-13.78448407 13.1303917 -14.16380655 17.4362748 -13.97265625 22.86328125 C-14 25 -14 25 -15 27 C-14.34 27 -13.68 27 -13 27 C-13 28.65 -13 30.3 -13 32 C-14.32 32.66 -15.64 33.32 -17 34 C-20.82470971 31.63814269 -20.82470971 31.63814269 -21.59692383 28.8269043 C-22.3395511 11.94736504 -22.3395511 11.94736504 -19.2265625 7.421875 C-16.8652694 5.89066104 -14.64922341 4.93377731 -12 4 C-10.73655535 3.2299716 -9.48486864 2.44006782 -8.25 1.625 C-4.83044677 -0.08477662 -3.70463464 -0.46373805 0 0 Z " fill="#77B7CF" transform="translate(61,1)"/>
<path d="M0 0 C0.33 0 0.66 0 1 0 C1.60550491 4.47400853 1.84781982 8.54764559 1 13 C-1.84694102 16.27931668 -5.17209407 18.0300835 -9 20 C-10.27105422 20.85383795 -11.54192274 21.70795246 -12.8125 22.5625 C-16 24 -16 24 -18.2421875 23.34765625 C-21.6876644 21.66396003 -25.00042827 19.8056206 -28.3125 17.875 C-28.95767578 17.50246094 -29.60285156 17.12992188 -30.26757812 16.74609375 C-31.84675945 15.83367787 -33.42361864 14.91724491 -35 14 C-32.33961033 11.19416762 -29.69911992 9.00705579 -26.4375 6.9375 C-24.18561605 5.50586383 -22.24418666 4.25858587 -20.41015625 2.31640625 C-19 1 -19 1 -16 1 C-16.165 1.7425 -16.33 2.485 -16.5 3.25 C-17.20054587 8.50409401 -17.07707499 13.70751749 -17 19 C-11.59212615 17.90213575 -11.59212615 17.90213575 -8 14 C-6.68 14 -5.36 14 -4 14 C-4 13.01 -4 12.02 -4 11 C-3.34 11 -2.68 11 -2 11 C-0.98617037 7.3791799 -0.50102309 3.72188582 0 0 Z " fill="#7CC2DF" transform="translate(36,88)"/>
<path d="M0 0 C1.24546405 2.49092811 0.7767578 3.41080733 0 6 C1.65 6.33 3.3 6.66 5 7 C3.68 7.33 2.36 7.66 1 8 C1 13.28 1 18.56 1 24 C2.65 24 4.3 24 6 24 C8.4375 25.3125 8.4375 25.3125 11 27 C12.0725 27.495 13.145 27.99 14.25 28.5 C17 30 17 30 18 33 C16.48276443 33.94331145 14.9609947 34.87933111 13.4375 35.8125 C12.59058594 36.33457031 11.74367188 36.85664063 10.87109375 37.39453125 C7.6502668 39.1955651 4.4108809 40.59601565 1 42 C0.6615135 37.83373537 0.33014248 33.66693347 0 29.5 C-0.09539063 28.32695312 -0.19078125 27.15390625 -0.2890625 25.9453125 C-0.7611905 19.94254224 -1.11923326 14.02127983 -1 8 C-1.99 7.67 -2.98 7.34 -4 7 C-4.66 6.67 -5.32 6.34 -6 6 C-6 6.66 -6 7.32 -6 8 C-6.99 8.33 -7.98 8.66 -9 9 C-9.99 8.34 -10.98 7.68 -12 7 C-8.04 4.69 -4.08 2.38 0 0 Z " fill="#76BCDA" transform="translate(38,104)"/>
<path d="M0 0 C2.70849826 0.94942021 5.06940609 2.23645789 7.5703125 3.64453125 C11.39984008 5.79122417 15.25668745 7.82926463 19.1953125 9.76953125 C21.57511788 28.53216092 21.57511788 28.53216092 17.80371094 33.66259766 C13.79585354 37.05768347 9.0960956 39.00656498 4.1953125 40.76953125 C3.20917969 41.1665625 2.22304687 41.56359375 1.20703125 41.97265625 C0.21123047 42.36710937 0.21123047 42.36710937 -0.8046875 42.76953125 C-0.44158906 35.38652964 -0.44158906 35.38652964 2.1953125 32.83203125 C6.16290844 31.42684102 10.01133439 31.03387845 14.1953125 30.76953125 C14.5253125 28.45953125 14.8553125 26.14953125 15.1953125 23.76953125 C16.1853125 23.76953125 17.1753125 23.76953125 18.1953125 23.76953125 C17.8653125 19.80953125 17.5353125 15.84953125 17.1953125 11.76953125 C15.2153125 12.09953125 13.2353125 12.42953125 11.1953125 12.76953125 C11.1953125 11.77953125 11.1953125 10.78953125 11.1953125 9.76953125 C5.43357567 6.70477762 1.56791051 6.57015339 -4.8046875 7.76953125 C-5.1346875 6.77953125 -5.4646875 5.78953125 -5.8046875 4.76953125 C-4.8146875 4.76953125 -3.8246875 4.76953125 -2.8046875 4.76953125 C-3.7946875 4.10953125 -4.7846875 3.44953125 -5.8046875 2.76953125 C-2.36460266 -0.30197307 -2.36460266 -0.30197307 0 0 Z " fill="#90BECF" transform="translate(118.8046875,104.23046875)"/>
<path d="M0 0 C10.89 0 21.78 0 33 0 C32.67 2.97 32.34 5.94 32 9 C30.22950311 9.05410687 28.45853151 9.09284119 26.6875 9.125 C25.20830078 9.15980469 25.20830078 9.15980469 23.69921875 9.1953125 C21 9 21 9 18 7 C17.01 7.33 16.02 7.66 15 8 C15 8.66 15 9.32 15 10 C12.69 9.67 10.38 9.34 8 9 C8 8.01 8 7.02 8 6 C7.6937566 4.66018514 7.36548445 3.32488113 7 2 C4.03 1.505 4.03 1.505 1 1 C1 3.97 1 6.94 1 10 C0.67 10 0.34 10 0 10 C0 6.7 0 3.4 0 0 Z " fill="#3F3F3F" transform="translate(200,19)"/>
<path d="M0 0 C0.66 0.33 1.32 0.66 2 1 C3.37548156 1.08308638 4.75485796 1.10736016 6.1328125 1.09765625 C6.93847656 1.09443359 7.74414062 1.09121094 8.57421875 1.08789062 C9.41597656 1.07951172 10.25773437 1.07113281 11.125 1.0625 C12.39923828 1.05573242 12.39923828 1.05573242 13.69921875 1.04882812 C15.79950909 1.03702874 17.8997633 1.01909306 20 1 C20 3.97 20 6.94 20 10 C15.89606988 10.11591764 11.79255894 10.18715601 7.6875 10.25 C6.52025391 10.28351562 5.35300781 10.31703125 4.15039062 10.3515625 C3.03212891 10.36445312 1.91386719 10.37734375 0.76171875 10.390625 C-0.7857605 10.4220459 -0.7857605 10.4220459 -2.36450195 10.45410156 C-5 10 -5 10 -6.86010742 7.97558594 C-7.23627197 7.32364258 -7.61243652 6.67169922 -8 6 C-7.05125 5.690625 -6.1025 5.38125 -5.125 5.0625 C-2.13919592 4.12605258 -2.13919592 4.12605258 0 3 C0 2.01 0 1.02 0 0 Z " fill="#2F2F2F" transform="translate(245,51)"/>
<path d="M0 0 C0.51046875 0.35191406 1.0209375 0.70382813 1.546875 1.06640625 C7.85914841 5.35293234 14.37816878 9.21289517 21 13 C20.67 13.66 20.34 14.32 20 15 C19.84777027 16.66565749 19.75082785 18.33656496 19.68359375 20.0078125 C19.62075195 21.48701172 19.62075195 21.48701172 19.55664062 22.99609375 C19.51732422 24.02863281 19.47800781 25.06117187 19.4375 26.125 C19.37272461 27.68541016 19.37272461 27.68541016 19.30664062 29.27734375 C19.2003712 31.85142528 19.09833417 34.42560508 19 37 C20.98 37.66 22.96 38.32 25 39 C25 39.66 25 40.32 25 41 C25.66 41 26.32 41 27 41 C26.505 41.99 26.505 41.99 26 43 C25.29875 42.46375 24.5975 41.9275 23.875 41.375 C21.08486472 39.66652409 21.08486472 39.66652409 18.21875 40.6875 C14.81045662 42.07728953 11.7800579 43.73196526 8.625 45.625 C7.56539062 46.25664063 6.50578125 46.88828125 5.4140625 47.5390625 C4.61742188 48.02117187 3.82078125 48.50328125 3 49 C2.34 48.01 1.68 47.02 1 46 C2.07121094 45.36191406 3.14242188 44.72382812 4.24609375 44.06640625 C5.64327534 43.23184812 7.04040824 42.39720849 8.4375 41.5625 C9.14455078 41.14162109 9.85160156 40.72074219 10.58007812 40.28710938 C13.97983349 38.39973701 13.97983349 38.39973701 17 36 C18.31727325 29.25083456 18.97711254 21.64515228 17 15 C13.29322179 10.02855628 7.0091829 6.435726 1 5 C-1.65888474 5.38691251 -1.65888474 5.38691251 -4 7 C-5.17149466 7.64912439 -6.34340342 8.29750174 -7.515625 8.9453125 C-8.76231923 9.66860557 -10.00708197 10.39523693 -11.25 11.125 C-17.87370242 15 -17.87370242 15 -19 15 C-19 13.35 -19 11.7 -19 10 C-15.86650268 8.95550089 -15.01031744 9.06576355 -12 10 C-12 9.34 -12 8.68 -12 8 C-10.0452187 6.25465955 -8.58051497 5.12698765 -6 4.5625 C-3.22052609 3.78077296 -1.9019163 2.10569305 0 0 Z M21 11 C21.99 11.495 21.99 11.495 23 12 C22.01 12.495 22.01 12.495 21 13 C21 12.34 21 11.68 21 11 Z " fill="#E3F9FC" transform="translate(19,65)"/>
<path d="M0 0 C0.99 0.33 1.98 0.66 3 1 C3.33 0.67 3.66 0.34 4 0 C4.99 0.66 5.98 1.32 7 2 C9.38677076 2.29452584 11.78626094 2.4928217 14.1875 2.625 C15.45980469 2.69976562 16.73210937 2.77453125 18.04296875 2.8515625 C19.01878906 2.90054688 19.99460937 2.94953125 21 3 C21 5.97 21 8.94 21 12 C14.4 12 7.8 12 1 12 C1.99 11.34 2.98 10.68 4 10 C2.35 9.67 0.7 9.34 -1 9 C-0.67 6.03 -0.34 3.06 0 0 Z " fill="#2E2E2E" transform="translate(105,49)"/>
<path d="M0 0 C0.99 0 1.98 0 3 0 C3.33 1.65 3.66 3.3 4 5 C3.01 5 2.02 5 1 5 C1 5.66 1 6.32 1 7 C1.66 7 2.32 7 3 7 C3.33 9.97 3.66 12.94 4 16 C5.32 15.67 6.64 15.34 8 15 C8 16.65 8 18.3 8 20 C13.94 20 19.88 20 26 20 C26 20.33 26 20.66 26 21 C19.73 21.33 13.46 21.66 7 22 C6.67 22.99 6.34 23.98 6 25 C3.03 25.33 0.06 25.66 -3 26 C-2.89049976 22.0410768 -2.75978332 18.08313674 -2.625 14.125 C-2.5940625 12.99707031 -2.563125 11.86914062 -2.53125 10.70703125 C-2.49257812 9.63066406 -2.45390625 8.55429687 -2.4140625 7.4453125 C-2.3826416 6.45031738 -2.3512207 5.45532227 -2.31884766 4.43017578 C-2 2 -2 2 0 0 Z " fill="#3C3C3C" transform="translate(239,31)"/>
<path d="M0 0 C1.51568741 0.00399566 3.03137548 0.0187717 4.546875 0.04296875 C5.29839844 0.04361328 6.04992187 0.04425781 6.82421875 0.04492188 C11.084182 0.07837708 15.10285504 0.39567178 19.296875 1.23046875 C18.966875 3.87046875 18.636875 6.51046875 18.296875 9.23046875 C15.50514445 9.25736979 12.71367152 9.27725928 9.921875 9.29296875 C8.73078125 9.30553711 8.73078125 9.30553711 7.515625 9.31835938 C1.5234375 9.34375 1.5234375 9.34375 -0.703125 8.23046875 C-0.703125 6.58046875 -0.703125 4.93046875 -0.703125 3.23046875 C-2.353125 2.90046875 -4.003125 2.57046875 -5.703125 2.23046875 C-3.703125 0.23046875 -3.703125 0.23046875 0 0 Z " fill="#303030" transform="translate(245.703125,18.76953125)"/>
<path d="M0 0 C2.97 0.495 2.97 0.495 6 1 C6 1.66 6 2.32 6 3 C6.9075 3.28875 7.815 3.5775 8.75 3.875 C11.32202908 4.76531776 13.61346766 5.71494413 16 7 C14.61375742 11.15872775 11.76037998 12.21825071 8.125 14.25 C7.16787109 14.81460938 7.16787109 14.81460938 6.19140625 15.390625 C4.5072328 16.34698237 2.75559131 17.18210099 1 18 C0.01 17.67 -0.98 17.34 -2 17 C-2 16.34 -2 15.68 -2 15 C-4.31 14.01 -6.62 13.02 -9 12 C-9 10.68 -9 9.36 -9 8 C-8.34 8 -7.68 8 -7 8 C-7 8.66 -7 9.32 -7 10 C-6.34 10 -5.68 10 -5 10 C-4.67 9.34 -4.34 8.68 -4 8 C-2.68 8 -1.36 8 0 8 C0 8.66 0 9.32 0 10 C0.61875 9.690625 1.2375 9.38125 1.875 9.0625 C3.25 8.375 4.625 7.6875 6 7 C5.67 6.01 5.34 5.02 5 4 C4.01 4 3.02 4 2 4 C1.34 3.67 0.68 3.34 0 3 C0 2.01 0 1.02 0 0 Z " fill="#54A8C7" transform="translate(80,128)"/>
<path d="M0 0 C6.93359375 -0.09765625 6.93359375 -0.09765625 9 0 C10 1 10 1 10.09765625 4.16015625 C10.08605469 5.44792969 10.07445313 6.73570313 10.0625 8.0625 C10.05347656 9.35285156 10.04445313 10.64320312 10.03515625 11.97265625 C10.02355469 12.97167969 10.01195313 13.97070312 10 15 C8 16 8 16 0 16 C0 10.72 0 5.44 0 0 Z " fill="#343434" transform="translate(100,75)"/>
<path d="M0 0 C0.02707139 2.24993359 0.04642829 4.49996095 0.0625 6.75 C0.07410156 8.00296875 0.08570313 9.2559375 0.09765625 10.546875 C0.02021027 13.28536501 -0.17219185 15.41880293 -1 18 C-0.34 18.33 0.32 18.66 1 19 C-0.12073862 19.83905565 -1.24674547 20.67107831 -2.375 21.5 C-3.00148438 21.9640625 -3.62796875 22.428125 -4.2734375 22.90625 C-6 24 -6 24 -8 24 C-8.14505175 20.56294295 -8.23398014 17.12666967 -8.3125 13.6875 C-8.3753418 12.22280273 -8.3753418 12.22280273 -8.43945312 10.72851562 C-8.48520322 8.06586016 -8.4741278 5.62127418 -8 3 C-5.15724845 0.35724102 -3.85331878 0 0 0 Z " fill="#5CA9CC" transform="translate(8,77)"/>
<path d="M0 0 C2.97 0.495 2.97 0.495 6 1 C6 2.65 6 4.3 6 6 C12.27 6.33 18.54 6.66 25 7 C25 4.69 25 2.38 25 0 C25.33 0 25.66 0 26 0 C26 2.64 26 5.28 26 8 C17.585 8.495 17.585 8.495 9 9 C8.34 10.65 7.68 12.3 7 14 C6.34 14 5.68 14 5 14 C4.34 12.68 3.68 11.36 3 10 C1.02 10.99 1.02 10.99 -1 12 C-1.33 19.59 -1.66 27.18 -2 35 C-2.33 35 -2.66 35 -3 35 C-3.07429025 30.65840162 -3.12866741 26.3171423 -3.16479492 21.97509766 C-3.17985923 20.49879509 -3.20031482 19.02253712 -3.22631836 17.54638672 C-3.26280739 15.42143742 -3.27974933 13.29708099 -3.29296875 11.171875 C-3.3086792 9.8940918 -3.32438965 8.61630859 -3.34057617 7.29980469 C-2.9827054 3.8324345 -2.37101156 2.48313552 0 0 Z " fill="#2A2A2A" transform="translate(239,21)"/>
<path d="M0 0 C-0.99 1.485 -0.99 1.485 -2 3 C-2.45139459 5.0492094 -2.45139459 5.0492094 -2.625 7.1875 C-2.74875 8.445625 -2.8725 9.70375 -3 11 C-1.68 10.67 -0.36 10.34 1 10 C1 10.66 1 11.32 1 12 C1.66 12.33 2.32 12.66 3 13 C1.39805929 13.98280415 -0.20663742 14.96111717 -1.8125 15.9375 C-2.70582031 16.48277344 -3.59914063 17.02804688 -4.51953125 17.58984375 C-7 19 -7 19 -10 20 C-10 13.73 -10 7.46 -10 1 C-4.375 -1.25 -4.375 -1.25 0 0 Z " fill="#55A6C5" transform="translate(31,46)"/>
<path d="M0 0 C1.02480469 0.55429687 2.04960938 1.10859375 3.10546875 1.6796875 C4.46607091 2.41159763 5.82675218 3.14336071 7.1875 3.875 C7.86103516 4.23980469 8.53457031 4.60460938 9.22851562 4.98046875 C14.46352177 7.83259045 14.46352177 7.83259045 20 10 C22.76740335 9.22772827 22.76740335 9.22772827 25 8 C24 11 24 11 21.9375 12.1875 C21.298125 12.455625 20.65875 12.72375 20 13 C20.01571045 13.65073486 20.0314209 14.30146973 20.04760742 14.97192383 C20.10994649 17.91869424 20.14898684 20.86532598 20.1875 23.8125 C20.21263672 24.83666016 20.23777344 25.86082031 20.26367188 26.91601562 C20.27333984 27.89892578 20.28300781 28.88183594 20.29296875 29.89453125 C20.3086792 30.80050049 20.32438965 31.70646973 20.34057617 32.63989258 C20 35 20 35 18.6184082 36.83862305 C17 38 17 38 14.8125 37.6875 C14.214375 37.460625 13.61625 37.23375 13 37 C13.99 36.34 14.98 35.68 16 35 C16.50843062 32.68246412 16.50843062 32.68246412 16.51171875 29.9921875 C16.54716797 29.00605469 16.58261719 28.01992188 16.61914062 27.00390625 C16.64169922 25.97136719 16.66425781 24.93882813 16.6875 23.875 C16.72166016 22.83472656 16.75582031 21.79445313 16.79101562 20.72265625 C16.87367058 18.14854493 16.94276155 15.57478171 17 13 C15.84878662 12.55624023 15.84878662 12.55624023 14.67431641 12.10351562 C11.65833714 10.85901806 9.10900451 9.27747951 6.375 7.5 C5.43398438 6.8915625 4.49296875 6.283125 3.5234375 5.65625 C1.67754352 4.44470349 -0.16285075 3.22476617 -2 2 C-1.34 2 -0.68 2 0 2 C0 1.34 0 0.68 0 0 Z " fill="#DCF6FA" transform="translate(40,32)"/>
<path d="M0 0 C2 3 2 3 1.625 4.8984375 C1.41875 5.59195312 1.2125 6.28546875 1 7 C0.95792239 8.54109234 0.95876615 10.08388486 1 11.625 C1.11041009 15.77917981 1.11041009 15.77917981 0 18 C0.66 18 1.32 18 2 18 C2 19.65 2 21.3 2 23 C0.02 23.99 0.02 23.99 -2 25 C-2.99 24.34 -3.98 23.68 -5 23 C-5.34057617 20.84521484 -5.34057617 20.84521484 -5.29296875 18.2109375 C-5.2784668 16.79941406 -5.2784668 16.79941406 -5.26367188 15.359375 C-5.23853516 14.37453125 -5.21339844 13.3896875 -5.1875 12.375 C-5.17396484 11.38242187 -5.16042969 10.38984375 -5.14648438 9.3671875 C-5.11105743 6.91091928 -5.06166196 4.45572715 -5 2 C-3.35 1.34 -1.7 0.68 0 0 Z " fill="#76B6D5" transform="translate(46,10)"/>
<path d="M0 0 C6.8359375 -0.29296875 6.8359375 -0.29296875 9 0 C11.58675384 3.88013076 10.79830401 5.52949754 10 10 C10 12.62113708 10.31292445 14.50935112 11 17 C8.49962266 14.82575883 7.56371414 13.26954202 7 10 C5.35 10 3.7 10 2 10 C2 12.31 2 14.62 2 17 C1.34 17 0.68 17 0 17 C0 11.39 0 5.78 0 0 Z " fill="#474747" transform="translate(311,74)"/>
<path d="M0 0 C4.62 0 9.24 0 14 0 C14 2.97 14 5.94 14 9 C12.04174127 9.02694851 10.08337774 9.04637218 8.125 9.0625 C7.03445312 9.07410156 5.94390625 9.08570313 4.8203125 9.09765625 C2 9 2 9 0 8 C0 5.36 0 2.72 0 0 Z " fill="#2E2E2E" transform="translate(142,36)"/>
<path d="M0 0 C0.99 0 1.98 0 3 0 C3.95963369 4.97264731 3.95963369 4.97264731 3 8 C-0.3425992 10.91091972 -4.11589993 12.89544647 -8 15 C-9.24056238 15.79499177 -10.47290202 16.60337849 -11.6875 17.4375 C-12.450625 17.953125 -13.21375 18.46875 -14 19 C-14.66 18.67 -15.32 18.34 -16 18 C-15.63760897 11.59775841 -15.63760897 11.59775841 -13 9.125 C-9.03505049 7.63814393 -5.20607595 7.26574336 -1 7 C-0.67 4.69 -0.34 2.38 0 0 Z " fill="#87BED4" transform="translate(134,128)"/>
<path d="M0 0 C0.33 0 0.66 0 1 0 C1.63019694 10.97592998 1.63019694 10.97592998 -1 15.25 C-1.66 15.8275 -2.32 16.405 -3 17 C-4.65 16.67 -6.3 16.34 -8 16 C-7.34 15.01 -6.68 14.02 -6 13 C-6.33 12.01 -6.66 11.02 -7 10 C-7.99 10.33 -8.98 10.66 -10 11 C-11.56118428 11.06740865 -13.1250252 11.08514456 -14.6875 11.0625 C-15.89986328 11.04896484 -15.89986328 11.04896484 -17.13671875 11.03515625 C-18.05904297 11.01775391 -18.05904297 11.01775391 -19 11 C-19 10.67 -19 10.34 -19 10 C-16.36 9.67 -13.72 9.34 -11 9 C-10.34 7.35 -9.68 5.7 -9 4 C-8.34 4.33 -7.68 4.66 -7 5 C-3.27641285 3.88292386 -2.2180224 3.3270336 0 0 Z " fill="#2D2D2D" transform="translate(299,28)"/>
<path d="M0 0 C0.33 0 0.66 0 1 0 C1 2.64 1 5.28 1 8 C4.93774177 8.36630156 6.56539771 8.30233203 9.875 6 C10.57625 5.34 11.2775 4.68 12 4 C12.268125 4.639375 12.53625 5.27875 12.8125 5.9375 C13.88667752 8.33131686 13.88667752 8.33131686 17 9 C17.33 11.97 17.66 14.94 18 18 C11.47343063 15.97147168 5.25784811 13.4566522 0 9 C-1.01019515 5.78574269 -0.79510346 3.24667244 0 0 Z " fill="#49A4C8" transform="translate(21,128)"/>
<path d="M0 0 C0.66 0 1.32 0 2 0 C1.67 0.99 1.34 1.98 1 3 C0.85426942 4.47965926 0.75336732 5.96403843 0.68359375 7.44921875 C0.64169922 8.29677734 0.59980469 9.14433594 0.55664062 10.01757812 C0.51732422 10.89865234 0.47800781 11.77972656 0.4375 12.6875 C0.39431641 13.58017578 0.35113281 14.47285156 0.30664062 15.39257812 C0.20064647 17.59490108 0.09857949 19.79733473 0 22 C0.928125 22.2165625 0.928125 22.2165625 1.875 22.4375 C4 23 4 23 6 24 C6 24.66 6 25.32 6 26 C7.175625 26.2165625 7.175625 26.2165625 8.375 26.4375 C11 27 11 27 13 28 C18.99598786 28.31557831 24.20266009 27.50301405 30 26 C27.30572729 28.87121002 24.60723903 30.3882549 21 32 C20.34 32 19.68 32 19 32 C18.67 32.66 18.34 33.32 18 34 C15.01931287 32.356909 12.04071332 30.71007008 9.0625 29.0625 C8.21236328 28.59392578 7.36222656 28.12535156 6.48632812 27.64257812 C5.27299805 26.9706543 5.27299805 26.9706543 4.03515625 26.28515625 C2.91185913 25.66459351 2.91185913 25.66459351 1.76586914 25.03149414 C0 24 0 24 -1 23 C-1.0991657 21.37742456 -1.13079777 19.75060169 -1.1328125 18.125 C-1.13410156 17.14015625 -1.13539062 16.1553125 -1.13671875 15.140625 C-1.13285156 14.10421875 -1.12898438 13.0678125 -1.125 12 C-1.13080078 10.44539063 -1.13080078 10.44539063 -1.13671875 8.859375 C-1.13542969 7.87453125 -1.13414063 6.8896875 -1.1328125 5.875 C-1.13168457 4.96492188 -1.13055664 4.05484375 -1.12939453 3.1171875 C-1 1 -1 1 0 0 Z " fill="#8AB9CF" transform="translate(21,44)"/>
<path d="M0 0 C0.99 0 1.98 0 3 0 C3.99 3.96 4.98 7.92 6 12 C6.66 12 7.32 12 8 12 C8.13277344 11.38511719 8.26554688 10.77023438 8.40234375 10.13671875 C8.66724609 8.92435547 8.66724609 8.92435547 8.9375 7.6875 C9.11152344 6.88699219 9.28554687 6.08648437 9.46484375 5.26171875 C10 3 10 3 11 0 C11.99 0 12.98 0 14 0 C14 5.28 14 10.56 14 16 C13.67 16 13.34 16 13 16 C12.855625 14.865625 12.71125 13.73125 12.5625 12.5625 C12.38828522 9.19222799 12.38828522 9.19222799 11 8 C10.01 10.97 9.02 13.94 8 17 C7.34 17 6.68 17 6 17 C5.49440092 15.56445975 4.9957251 14.1264798 4.5 12.6875 C4.2215625 11.88699219 3.943125 11.08648437 3.65625 10.26171875 C3 8 3 8 3 5 C2.34 5 1.68 5 1 5 C1 8.96 1 12.92 1 17 C0.34 17 -0.32 17 -1 17 C-0.67 11.39 -0.34 5.78 0 0 Z " fill="#3D3D3D" transform="translate(138,74)"/>
<path d="M0 0 C2.19274086 4.38548172 2.23367512 6.55693528 2.1953125 11.390625 C2.1924826 12.09523865 2.18965271 12.79985229 2.18673706 13.52581787 C2.17557801 15.7673876 2.15048193 18.00855186 2.125 20.25 C2.11496464 21.77343171 2.10583976 23.29686971 2.09765625 24.8203125 C2.07565291 28.54700586 2.04115272 32.27346333 2 36 C4.64 36 7.28 36 10 36 C10 31.38 10 26.76 10 22 C10.33 22 10.66 22 11 22 C11 28.27 11 34.54 11 41 C7.37 41 3.74 41 0 41 C0 27.47 0 13.94 0 0 Z " fill="#222222" transform="translate(163,20)"/>
<path d="M0 0 C0.8353125 0.48210937 1.670625 0.96421875 2.53125 1.4609375 C4.18060547 2.3890625 4.18060547 2.3890625 5.86328125 3.3359375 C7.02596404 4.040116 8.18609018 4.74853146 9.34375 5.4609375 C9.94123047 5.81671875 10.53871094 6.1725 11.15429688 6.5390625 C12.65015414 7.45538192 14.09602862 8.45228997 15.53125 9.4609375 C15.53125 10.1209375 15.53125 10.7809375 15.53125 11.4609375 C13.56977126 12.85031827 11.56958424 14.1869786 9.53125 15.4609375 C8.87125 15.1309375 8.21125 14.8009375 7.53125 14.4609375 C8.19125 13.4709375 8.85125 12.4809375 9.53125 11.4609375 C8.87125 11.4609375 8.21125 11.4609375 7.53125 11.4609375 C7.20125 9.8109375 6.87125 8.1609375 6.53125 6.4609375 C5.54125 6.4609375 4.55125 6.4609375 3.53125 6.4609375 C3.53125 5.8009375 3.53125 5.1409375 3.53125 4.4609375 C-2.19679306 4.12399379 -5.56203365 4.2365239 -10.46875 7.4609375 C-12.60546875 7.05078125 -12.60546875 7.05078125 -14.46875 6.4609375 C-12.58715566 5.23054886 -10.68782073 4.02725673 -8.78125 2.8359375 C-7.72550781 2.16304688 -6.66976563 1.49015625 -5.58203125 0.796875 C-2.46875 -0.5390625 -2.46875 -0.5390625 0 0 Z " fill="#77AFCC" transform="translate(20.46875,69.5390625)"/>
<path d="M0 0 C0.33 0 0.66 0 1 0 C1 7.26 1 14.52 1 22 C2.98 22.66 4.96 23.32 7 24 C7 24.66 7 25.32 7 26 C7.66 26 8.32 26 9 26 C8.67 26.66 8.34 27.32 8 28 C7.29875 27.46375 6.5975 26.9275 5.875 26.375 C3.08486472 24.66652409 3.08486472 24.66652409 0.21875 25.6875 C-3.18954338 27.07728953 -6.2199421 28.73196526 -9.375 30.625 C-10.96441406 31.57246094 -10.96441406 31.57246094 -12.5859375 32.5390625 C-13.38257813 33.02117187 -14.17921875 33.50328125 -15 34 C-15.66 33.01 -16.32 32.02 -17 31 C-15.92878906 30.36191406 -14.85757812 29.72382812 -13.75390625 29.06640625 C-12.35672466 28.23184812 -10.95959176 27.39720849 -9.5625 26.5625 C-8.50192383 25.93118164 -8.50192383 25.93118164 -7.41992188 25.28710938 C-4.02016651 23.39973701 -4.02016651 23.39973701 -1 21 C-0.84313751 19.44051458 -0.74923361 17.87457332 -0.68359375 16.30859375 C-0.64169922 15.36435547 -0.59980469 14.42011719 -0.55664062 13.44726562 C-0.51732422 12.45404297 -0.47800781 11.46082031 -0.4375 10.4375 C-0.39431641 9.44041016 -0.35113281 8.44332031 -0.30664062 7.41601562 C-0.20019702 4.9441585 -0.09818072 2.4721969 0 0 Z " fill="#CEECF4" transform="translate(37,80)"/>
<path d="M0 0 C0.33 0 0.66 0 1 0 C1 7.59 1 15.18 1 23 C0.34 23 -0.32 23 -1 23 C-1 22.34 -1 21.68 -1 21 C-1.9075 20.71125 -2.815 20.4225 -3.75 20.125 C-6.32202908 19.23468224 -8.61346766 18.28505587 -11 17 C-11 16.34 -11 15.68 -11 15 C-11.99 15 -12.98 15 -14 15 C-14 14.34 -14 13.68 -14 13 C-9.71 13 -5.42 13 -1 13 C-0.67 8.71 -0.34 4.42 0 0 Z " fill="#9CCADC" transform="translate(97,114)"/>
<path d="M0 0 C1.32 0 2.64 0 4 0 C3.859375 2.26171875 3.859375 2.26171875 3 5 C0.453125 7.01953125 0.453125 7.01953125 -2.75 8.8125 C-3.79671875 9.41707031 -4.8434375 10.02164063 -5.921875 10.64453125 C-8.95332178 11.979445 -10.7439336 12.30751738 -14 12 C-13.01 11.67 -12.02 11.34 -11 11 C-10.9175 10.05125 -10.835 9.1025 -10.75 8.125 C-10 5 -10 5 -8.3125 3.625 C-5.47268254 2.85748177 -2.92814973 2.86690228 0 3 C0 2.01 0 1.02 0 0 Z " fill="#57A6C2" transform="translate(72,29)"/>
<path d="M0 0 C0.99 0.33 1.98 0.66 3 1 C4.38671875 3.87109375 4.38671875 3.87109375 5.6875 7.4375 C6.34298828 9.19900391 6.34298828 9.19900391 7.01171875 10.99609375 C8 14 8 14 8 16 C7.34 16 6.68 16 6 16 C5.67 14.35 5.34 12.7 5 11 C2.69 11 0.38 11 -2 11 C-2.33 12.65 -2.66 14.3 -3 16 C-3.66 16 -4.32 16 -5 16 C-4.54548816 14.26982492 -4.08621143 12.54090123 -3.625 10.8125 C-3.36976563 9.84957031 -3.11453125 8.88664062 -2.8515625 7.89453125 C-2.05233704 5.17789793 -1.0968638 2.60862825 0 0 Z " fill="#2E2E2E" transform="translate(242,75)"/>
<path d="M0 0 C0.66 0 1.32 0 2 0 C2.83698386 2.45714547 3.66972424 4.91558857 4.5 7.375 C4.73847656 8.07367188 4.97695313 8.77234375 5.22265625 9.4921875 C7 14.7734375 7 14.7734375 7 17 C6.34 17 5.68 17 5 17 C4.67 15.68 4.34 14.36 4 13 C1.69 12.67 -0.62 12.34 -3 12 C-3.33 13.65 -3.66 15.3 -4 17 C-4.66 17 -5.32 17 -6 17 C-4.33846988 11.14340094 -2.52958084 5.5409866 0 0 Z " fill="#2F2F2F" transform="translate(335,74)"/>
<path d="M0 0 C0.33 0 0.66 0 1 0 C1 6.93 1 13.86 1 21 C2.32 21.33 3.64 21.66 5 22 C3.02942497 22.98966657 1.05693483 23.97256986 -0.9296875 24.9296875 C-4.20361708 26.5206332 -7.02908678 28.02227923 -9.9375 30.25 C-14.04249899 32.59571371 -17.38200513 32.36943959 -22 32 C-22 31.34 -22 30.68 -22 30 C-21.071875 29.95875 -20.14375 29.9175 -19.1875 29.875 C-12.50013926 28.95873585 -6.51411877 24.67607918 -1 21 C-0.49223956 18.78067723 -0.49223956 18.78067723 -0.48828125 16.2109375 C-0.45283203 15.26992187 -0.41738281 14.32890625 -0.38085938 13.359375 C-0.35830078 12.37453125 -0.33574219 11.3896875 -0.3125 10.375 C-0.27833984 9.38242188 -0.24417969 8.38984375 -0.20898438 7.3671875 C-0.12634343 4.91157094 -0.05724873 2.45631859 0 0 Z " fill="#D3EEF5" transform="translate(57,115)"/>
<path d="M0 0 C0.33 0 0.66 0 1 0 C1.60550491 4.47400853 1.84781982 8.54764559 1 13 C-1.84418584 16.27614306 -5.1660637 18.04675735 -9 20 C-10.33523095 20.80937775 -11.66887957 21.62137965 -13 22.4375 C-16 24 -16 24 -18 24 C-18 22.68 -18 21.36 -18 20 C-17.36191406 19.73445313 -16.72382813 19.46890625 -16.06640625 19.1953125 C-15.24011719 18.84210938 -14.41382813 18.48890625 -13.5625 18.125 C-12.73878906 17.77695313 -11.91507813 17.42890625 -11.06640625 17.0703125 C-8.84253285 16.1755063 -8.84253285 16.1755063 -8 14 C-6.68 14 -5.36 14 -4 14 C-4 13.01 -4 12.02 -4 11 C-3.34 11 -2.68 11 -2 11 C-0.98617037 7.3791799 -0.50102309 3.72188582 0 0 Z " fill="#82B3CB" transform="translate(36,88)"/>
<path d="M0 0 C0.66 0 1.32 0 2 0 C2.86772029 2.07772471 3.71873619 4.16243177 4.5625 6.25 C5.03816406 7.41015625 5.51382812 8.5703125 6.00390625 9.765625 C6.95770524 12.86266644 7.20983356 14.07321701 6 17 C5.67 15.35 5.34 13.7 5 12 C-0.03478441 12.23413974 -0.03478441 12.23413974 -3.9375 15.0625 C-4.4634375 16.0215625 -4.4634375 16.0215625 -5 17 C-4.35083537 10.99522721 -2.14204997 5.599219 0 0 Z " fill="#2D2D2D" transform="translate(297,74)"/>
<path d="M0 0 C0.66 0 1.32 0 2 0 C2 5.61 2 11.22 2 17 C-1.94875582 15.68374806 -2.54992713 13.94634602 -4.6875 10.4375 C-5.62142578 8.91962891 -5.62142578 8.91962891 -6.57421875 7.37109375 C-7.04472656 6.58863281 -7.51523438 5.80617188 -8 5 C-8.33 8.96 -8.66 12.92 -9 17 C-9.33 17 -9.66 17 -10 17 C-10 11.72 -10 6.44 -10 1 C-5.14144407 2.61951864 -3.69030344 6.75529902 -1 11 C-0.67 7.37 -0.34 3.74 0 0 Z " fill="#242424" transform="translate(191,74)"/>
<path d="M0 0 C0.66 0 1.32 0 2 0 C3.53266582 3.06533164 3.10276471 6.26754272 3.0625 9.625 C3.05798828 10.33140625 3.05347656 11.0378125 3.04882812 11.765625 C3.03703875 13.51045275 3.01910324 15.255237 3 17 C-1.42001501 17 -2.9856155 16.15107686 -6.75 14 C-7.73484375 13.443125 -8.7196875 12.88625 -9.734375 12.3125 C-10.85585937 11.6628125 -10.85585937 11.6628125 -12 11 C-11.67 10.34 -11.34 9.68 -11 9 C-10.34 9 -9.68 9 -9 9 C-9 9.66 -9 10.32 -9 11 C-4.545 11.99 -4.545 11.99 0 13 C0 9.7 0 6.4 0 3 C-0.66 2.67 -1.32 2.34 -2 2 C-1.34 2 -0.68 2 0 2 C0 1.34 0 0.68 0 0 Z " fill="#83BFD3" transform="translate(16,93)"/>
<path d="M0 0 C0.66 0 1.32 0 2 0 C3.46582355 2.14281033 4.81123514 4.26706396 6.125 6.5 C6.49753906 7.12003906 6.87007813 7.74007812 7.25390625 8.37890625 C8.17578953 9.91537838 9.08873475 11.45720675 10 13 C10.33 8.71 10.66 4.42 11 0 C11.33 0 11.66 0 12 0 C12 5.61 12 11.22 12 17 C11.34 17 10.68 17 10 17 C8.71993203 15.21601386 7.52339649 13.37146094 6.375 11.5 C5.74335938 10.4790625 5.11171875 9.458125 4.4609375 8.40625 C3.73777344 7.21515625 3.73777344 7.21515625 3 6 C2.67 9.63 2.34 13.26 2 17 C1.34 17 0.68 17 0 17 C0 11.39 0 5.78 0 0 Z " fill="#333333" transform="translate(257,74)"/>
<path d="M0 0 C6.15234375 -0.09765625 6.15234375 -0.09765625 8 0 C9 1 9 1 9.0625 4.5625 C9.041875 5.696875 9.02125 6.83125 9 8 C6.03 8 3.06 8 0 8 C0 5.36 0 2.72 0 0 Z " fill="#FBFBFB" transform="translate(280,29)"/>
<path d="M0 0 C0.33 0 0.66 0 1 0 C1 2.97 1 5.94 1 9 C-2.63 9 -6.26 9 -10 9 C-10 19.56 -10 30.12 -10 41 C-10.33 41 -10.66 41 -11 41 C-11.01401855 39.66038208 -11.01401855 39.66038208 -11.02832031 38.29370117 C-11.07235304 34.97764838 -11.13396861 31.66289061 -11.20751953 28.34741211 C-11.23573182 26.91296317 -11.25694524 25.47835871 -11.27099609 24.04370117 C-11.29242449 21.98014698 -11.33906467 19.91846294 -11.390625 17.85546875 C-11.41157227 16.61434326 -11.43251953 15.37321777 -11.45410156 14.09448242 C-11.70083395 10.89941778 -11.70083395 10.89941778 -14.03808594 9.0715332 C-14.68551758 8.71792725 -15.33294922 8.36432129 -16 8 C-15.34 7.01 -14.68 6.02 -14 5 C-12 6 -12 6 -11 7 C-9.15108054 7.23363881 -7.29511969 7.41303635 -5.4375 7.5625 C-3.91962891 7.68818359 -3.91962891 7.68818359 -2.37109375 7.81640625 C-1.19740234 7.90728516 -1.19740234 7.90728516 0 8 C0 5.36 0 2.72 0 0 Z " fill="#202020" transform="translate(232,20)"/>
<path d="M0 0 C0.66 0 1.32 0 2 0 C2 6.93 2 13.86 2 21 C1.01 21.33 0.02 21.66 -1 22 C-1.02887814 18.52085059 -1.04675687 15.04173169 -1.0625 11.5625 C-1.07087891 10.56927734 -1.07925781 9.57605469 -1.08789062 8.55273438 C-1.09111328 7.60849609 -1.09433594 6.66425781 -1.09765625 5.69140625 C-1.10289307 4.81685791 -1.10812988 3.94230957 -1.11352539 3.04125977 C-1 1 -1 1 0 0 Z " fill="#63AED1" transform="translate(1,79)"/>
<path d="M0 0 C-0.99 1.485 -0.99 1.485 -2 3 C-2.45139459 5.0492094 -2.45139459 5.0492094 -2.625 7.1875 C-2.74875 8.445625 -2.8725 9.70375 -3 11 C-4.32 10.67 -5.64 10.34 -7 10 C-7.33 8.68 -7.66 7.36 -8 6 C-8.66 6 -9.32 6 -10 6 C-10 4.35 -10 2.7 -10 1 C-6.21812119 -0.83691257 -4.05431692 -1.15837626 0 0 Z " fill="#5EAFCF" transform="translate(31,46)"/>
<path d="M0 0 C0.66 0 1.32 0 2 0 C2.08097324 2.27024968 2.13917704 4.54132075 2.1875 6.8125 C2.22230469 8.07707031 2.25710937 9.34164062 2.29296875 10.64453125 C2 14 2 14 0.7109375 15.92578125 C-2.16993233 17.73454656 -4.71416361 17.35845488 -8 17 C-10.42130331 13.36804504 -10.21022785 11.61650652 -10.125 7.3125 C-10.09792969 5.54326172 -10.09792969 5.54326172 -10.0703125 3.73828125 C-10.04710938 2.83464844 -10.02390625 1.93101563 -10 1 C-9.67 1 -9.34 1 -9 1 C-8.93941406 1.77085938 -8.87882812 2.54171875 -8.81640625 3.3359375 C-8.73261719 4.33882813 -8.64882812 5.34171875 -8.5625 6.375 C-8.48128906 7.37273437 -8.40007812 8.37046875 -8.31640625 9.3984375 C-8.15034374 11.97927613 -8.15034374 11.97927613 -7 14 C-5.02 14 -3.04 14 -1 14 C-0.67 9.38 -0.34 4.76 0 0 Z " fill="#404040" transform="translate(128,74)"/>
<path d="M0 0 C0 0.99 0 1.98 0 3 C2.2903935 4.27244083 4.00765948 5.00109421 6.625 5.375 C9 6 9 6 10.3125 8.0625 C10.539375 8.701875 10.76625 9.34125 11 10 C9.421875 10.74609375 9.421875 10.74609375 7 11 C4.59958109 9.77369903 2.47881286 8.54429316 0.25 7.0625 C-0.35199219 6.67642578 -0.95398437 6.29035156 -1.57421875 5.89257812 C-3.05671339 4.93954585 -4.52935633 3.97121988 -6 3 C-3.375 0 -3.375 0 0 0 Z " fill="#6FAEC5" transform="translate(51,32)"/>
<path d="M0 0 C0.79953138 3.28696233 1.09658936 4.71023192 0 8 C-1.65 8 -3.3 8 -5 8 C-5 7.34 -5 6.68 -5 6 C-6.65 5.67 -8.3 5.34 -10 5 C-9 2 -9 2 -7.25 0.8125 C-4.70039426 -0.10819096 -2.69076919 -0.14948718 0 0 Z " fill="#55A6C9" transform="translate(112,112)"/>
<path d="M0 0 C0.70769531 0.38285156 1.41539063 0.76570313 2.14453125 1.16015625 C2.85996094 1.54042969 3.57539062 1.92070313 4.3125 2.3125 C4.85519531 2.61285156 5.39789063 2.91320312 5.95703125 3.22265625 C5.95703125 5.20265625 5.95703125 7.18265625 5.95703125 9.22265625 C3.70703125 9.59765625 3.70703125 9.59765625 0.95703125 9.22265625 C-3.04296875 4.24968328 -3.04296875 4.24968328 -3.04296875 1.22265625 C-3.70296875 0.89265625 -4.36296875 0.56265625 -5.04296875 0.22265625 C-2.04296875 -0.77734375 -2.04296875 -0.77734375 0 0 Z " fill="#8CC3D8" transform="translate(51.04296875,110.77734375)"/>
<path d="M0 0 C0.66 0 1.32 0 2 0 C2 0.66 2 1.32 2 2 C2.66 2 3.32 2 4 2 C4.33 1.34 4.66 0.68 5 0 C6.32 0 7.64 0 9 0 C9 0.66 9 1.32 9 2 C9.99 2.33 10.98 2.66 12 3 C12 4.32 12 5.64 12 7 C7.6822542 6.49202991 3.96697886 5.80317221 0 4 C0 2.68 0 1.36 0 0 Z " fill="#59ACCE" transform="translate(71,136)"/>
<path d="M0 0 C0.86882812 0.51691406 1.73765625 1.03382813 2.6328125 1.56640625 C3.79637725 2.2326409 4.96046809 2.89795733 6.125 3.5625 C7.26195313 4.22378906 8.39890625 4.88507813 9.5703125 5.56640625 C13.4135359 7.17285612 15.0648913 7.19379702 19 6 C22.30859472 4.04543223 22.30859472 4.04543223 25 2 C25.66 2.33 26.32 2.66 27 3 C25.71034824 4.37562854 24.37310707 5.70766393 23 7 C22.34 7 21.68 7 21 7 C21 7.66 21 8.32 21 9 C15.14737112 9.35115773 11.12309693 9.18770476 6 6 C4.329375 4.9790625 4.329375 4.9790625 2.625 3.9375 C1.325625 2.9784375 1.325625 2.9784375 0 2 C0 1.34 0 0.68 0 0 Z " fill="#DAF4FA" transform="translate(64,138)"/>
<path d="M0 0 C0.99 0.495 0.99 0.495 2 1 C2.04898438 2.24136719 2.09796875 3.48273438 2.1484375 4.76171875 C2.22349799 6.40366694 2.29904439 8.04559297 2.375 9.6875 C2.4059375 10.50412109 2.436875 11.32074219 2.46875 12.16210938 C2.67955924 16.50126633 3.01738759 20.04283457 5 24 C1.125 23.125 1.125 23.125 0 22 C-0.08700342 20.36527118 -0.10701063 18.72685945 -0.09765625 17.08984375 C-0.09443359 16.10048828 -0.09121094 15.11113281 -0.08789062 14.09179688 C-0.07951172 13.05087891 -0.07113281 12.00996094 -0.0625 10.9375 C-0.05798828 9.89271484 -0.05347656 8.84792969 -0.04882812 7.77148438 C-0.03699913 5.1809334 -0.02051689 2.59049441 0 0 Z " fill="#98C0D4" transform="translate(60,114)"/>
<path d="M0 0 C3.96 0 7.92 0 12 0 C12 0.66 12 1.32 12 2 C10.35 2 8.7 2 7 2 C7 6.95 7 11.9 7 17 C6.34 17 5.68 17 5 17 C5 12.05 5 7.1 5 2 C3.35 2 1.7 2 0 2 C0 1.34 0 0.68 0 0 Z " fill="#4D4D4D" transform="translate(276,74)"/>
<path d="M0 0 C-1.45537568 0.83848804 -2.91440373 1.67063934 -4.375 2.5 C-5.59316406 3.19609375 -5.59316406 3.19609375 -6.8359375 3.90625 C-9 5 -9 5 -11 5 C-11.33 5.66 -11.66 6.32 -12 7 C-13.98 6.01 -15.96 5.02 -18 4 C-17.67 3.01 -17.34 2.02 -17 1 C-15.80375 1.04125 -14.6075 1.0825 -13.375 1.125 C-8.54271369 1.15065816 -4.54187577 -1.51395859 0 0 Z " fill="#A7CADA" transform="translate(51,71)"/>
<path d="M0 0 C0.33 0 0.66 0 1 0 C1.33 7.59 1.66 15.18 2 23 C1.34 23 0.68 23 0 23 C0 23.66 0 24.32 0 25 C-3.08809695 26.76462683 -4.23312136 27 -8 27 C-8 27.66 -8 28.32 -8 29 C-9.32 28.67 -10.64 28.34 -12 28 C-10.37829621 26.99466333 -8.75252763 25.99588093 -7.125 25 C-6.22007813 24.443125 -5.31515625 23.88625 -4.3828125 23.3125 C-2 22 -2 22 0 22 C0 14.74 0 7.48 0 0 Z " fill="#CEEBF4" transform="translate(77,11)"/>
<path d="M0 0 C0.99 0 1.98 0 3 0 C3 2.64 3 5.28 3 8 C2.40832031 8.19335938 1.81664062 8.38671875 1.20703125 8.5859375 C-2.9146645 9.94414719 -6.9950524 11.32050585 -11 13 C-11 10 -11 10 -10 8 C-7.93359375 7.5859375 -7.93359375 7.5859375 -5.4375 7.375 C-4.61121094 7.30023438 -3.78492188 7.22546875 -2.93359375 7.1484375 C-1.97646484 7.07496094 -1.97646484 7.07496094 -1 7 C-0.67 4.69 -0.34 2.38 0 0 Z " fill="#7ABBD4" transform="translate(134,128)"/>
<path d="M0 0 C-1.51486645 3.85602368 -3.51978427 5.7785857 -7 8 C-9.96811448 8.8864503 -12.94567295 9.49427265 -16 10 C-13.19680829 7.00123678 -10.40565083 4.83677273 -6.875 2.75 C-6.00617188 2.22921875 -5.13734375 1.7084375 -4.2421875 1.171875 C-2 0 -2 0 0 0 Z " fill="#E2F7FC" transform="translate(138,136)"/>
<path d="M0 0 C3.6875 0.875 3.6875 0.875 7 2 C4.49941082 4.91024202 1.80344623 6.16791164 -1.6875 7.6875 C-3.17830078 8.34298828 -3.17830078 8.34298828 -4.69921875 9.01171875 C-5.45847656 9.33785156 -6.21773437 9.66398438 -7 10 C-7 9.34 -7 8.68 -7 8 C-5.68 7.67 -4.36 7.34 -3 7 C-3.061875 6.21625 -3.12375 5.4325 -3.1875 4.625 C-3.125625 3.75875 -3.06375 2.8925 -3 2 C-2.01 1.34 -1.02 0.68 0 0 Z " fill="#8AC2D6" transform="translate(46,136)"/>
<path d="M0 0 C3.465 1.485 3.465 1.485 7 3 C7 10.26 7 17.52 7 25 C6.67 25 6.34 25 6 25 C5.67 18.4 5.34 11.8 5 5 C3.02 5.33 1.04 5.66 -1 6 C-1 5.01 -1 4.02 -1 3 C-1.33 2.34 -1.66 1.68 -2 1 C-1.34 0.67 -0.68 0.34 0 0 Z " fill="#97C6DF" transform="translate(131,111)"/>
<path d="M0 0 C2.31 0 4.62 0 7 0 C7.38218767 1.65614657 7.71395102 3.32457024 8 5 C7 6 7 6 3.4375 6.0625 C2.303125 6.041875 1.16875 6.02125 0 6 C0 4.02 0 2.04 0 0 Z " fill="#ECECEC" transform="translate(101,83)"/>
<path d="M0 0 C1.32 1.65 2.64 3.3 4 5 C4.33 4.34 4.66 3.68 5 3 C5.33 3.66 5.66 4.32 6 5 C8.51083114 3.74458443 8.87125446 2.49936512 10 0 C10.66 0 11.32 0 12 0 C10.92598892 2.91517292 10.22189824 4.77810176 8 7 C6.33333333 7.33333333 4.66666667 7.66666667 3 8 C2.34 8.66 1.68 9.32 1 10 C0.67 8.02 0.34 6.04 0 4 C-2.64 3.67 -5.28 3.34 -8 3 C-8 2.67 -8 2.34 -8 2 C-5.36 2 -2.72 2 0 2 C0 1.34 0 0.68 0 0 Z " fill="#393939" transform="translate(288,26)"/>
<path d="M0 0 C0.33 0.99 0.66 1.98 1 3 C-2.22824944 5.74999027 -3.52148447 6.10429689 -8 7 C-8 13.6 -8 20.2 -8 27 C-8.33 27 -8.66 27 -9 27 C-10.47956693 8.0160181 -10.47956693 8.0160181 -6.99609375 3.26953125 C-4.68290009 1.80342259 -2.62476216 0.76555563 0 0 Z " fill="#93BED1" transform="translate(49,5)"/>
<path d="M0 0 C0 0.99 0 1.98 0 3 C-0.9075 2.525625 -1.815 2.05125 -2.75 1.5625 C-5.90761881 0.59641129 -7.0016029 1.0007453 -10.06640625 2.42578125 C-12.20918119 3.71247763 -14.33010318 5.03637823 -16.42578125 6.3984375 C-19 8 -19 8 -21 8 C-20.3125 6.0625 -20.3125 6.0625 -19 4 C-16.375 3.25 -16.375 3.25 -14 3 C-14 2.34 -14 1.68 -14 1 C-9.22426677 -1.61895048 -5.15565119 -0.83119431 0 0 Z " fill="#E1F8FC" transform="translate(85,104)"/>
<path d="M0 0 C1.77007714 -0.08114106 3.54122098 -0.13925505 5.3125 -0.1875 C6.29863281 -0.22230469 7.28476562 -0.25710937 8.30078125 -0.29296875 C11.45706414 0.04960899 12.00906436 0.64707606 14 3 C15.20361088 3.77062024 16.43374072 4.50148077 17.6875 5.1875 C18.780625 5.785625 19.87375 6.38375 21 7 C21 7.66 21 8.32 21 9 C16.76747293 7.49813556 13.1001395 5.34973287 9.28125 3.0234375 C6.64021473 1.83858949 4.865862 1.74420405 2 2 C-0.25132517 2.91568906 -0.25132517 2.91568906 -2 4 C-1.34 2.68 -0.68 1.36 0 0 Z " fill="#E2FBFD" transform="translate(54,0)"/>
<path d="M0 0 C3.465 1.98 3.465 1.98 7 4 C7 4.66 7 5.32 7 6 C5.03852126 7.38938077 3.03833424 8.7260411 1 10 C0.34 9.67 -0.32 9.34 -1 9 C-0.34 8.01 0.32 7.02 1 6 C0.34 6 -0.32 6 -1 6 C-1.33 4.68 -1.66 3.36 -2 2 C-1.34 2 -0.68 2 0 2 C0 1.34 0 0.68 0 0 Z " fill="#8FC7E4" transform="translate(29,75)"/>
<path d="M0 0 C2.31 0 4.62 0 7 0 C7 1.98 7 3.96 7 6 C4.69 6 2.38 6 0 6 C0 4.02 0 2.04 0 0 Z " fill="#FAFAFA" transform="translate(313,76)"/>
<path d="M0 0 C2.56616632 3.84924948 2.55097676 6.4349304 3 11 C1.02 11 -0.96 11 -3 11 C-2.69078116 9.54096742 -2.37751201 8.08279278 -2.0625 6.625 C-1.88847656 5.81289063 -1.71445312 5.00078125 -1.53515625 4.1640625 C-1 2 -1 2 0 0 Z " fill="#E4E4E4" transform="translate(323,34)"/>
<path d="M0 0 C0.99 0.33 1.98 0.66 3 1 C0.6067214 3.61371215 -1.98397046 5.40088665 -5 7.25 C-6.299375 8.06210938 -6.299375 8.06210938 -7.625 8.890625 C-10 10 -10 10 -13 9 C-12.67 8.34 -12.34 7.68 -12 7 C-10.68 7 -9.36 7 -8 7 C-7.67 5.35 -7.34 3.7 -7 2 C-5.02 2 -3.04 2 -1 2 C-0.67 1.34 -0.34 0.68 0 0 Z " fill="#62A0B9" transform="translate(91,136)"/>
<path d="M0 0 C2.06898442 1.32185116 3.64943045 2.58420894 5.25 4.4375 C1.22315657 5.39122608 -0.1071007 5.25894965 -3.75 3.4375 C-4.74 3.4375 -5.73 3.4375 -6.75 3.4375 C-6.75 4.0975 -6.75 4.7575 -6.75 5.4375 C-7.74 5.4375 -8.73 5.4375 -9.75 5.4375 C-9.75 4.7775 -9.75 4.1175 -9.75 3.4375 C-3.51521739 -0.71902174 -3.51521739 -0.71902174 0 0 Z " fill="#66A4C2" transform="translate(80.75,104.5625)"/>
<path d="M0 0 C0.99 0.33 1.98 0.66 3 1 C4.81975482 6.12839994 2.8599099 10.17684382 1 15 C1.99 15.33 2.98 15.66 4 16 C2.35 16.33 0.7 16.66 -1 17 C-1.02684679 14.35409986 -1.04676357 11.70846904 -1.0625 9.0625 C-1.07087891 8.30775391 -1.07925781 7.55300781 -1.08789062 6.77539062 C-1.09652441 4.85005687 -1.05224333 2.92464419 -1 1 C-0.67 0.67 -0.34 0.34 0 0 Z " fill="#55A2C2" transform="translate(19,91)"/>
<path d="M0 0 C1.32 0 2.64 0 4 0 C4 0.66 4 1.32 4 2 C6.97 2.99 9.94 3.98 13 5 C13 6.32 13 7.64 13 9 C11.01501949 8.07487334 9.03713982 7.13449763 7.0625 6.1875 C5.96035156 5.66542969 4.85820313 5.14335937 3.72265625 4.60546875 C1 3 1 3 0 0 Z " fill="#6BAAC5" transform="translate(65,137)"/>
<path d="M0 0 C0.99 0 1.98 0 3 0 C3 5.28 3 10.56 3 16 C2.67 16 2.34 16 2 16 C1.67 13.69 1.34 11.38 1 9 C0.01 8.67 -0.98 8.34 -2 8 C-1.47731534 5.23723823 -0.89130413 2.6739124 0 0 Z " fill="#444444" transform="translate(149,74)"/>
<path d="M0 0 C1.0625 1.875 1.0625 1.875 2 4 C1.67 4.66 1.34 5.32 1 6 C3.64 6.33 6.28 6.66 9 7 C9 7.33 9 7.66 9 8 C3.71502591 9.05699482 3.71502591 9.05699482 1 9 C-1.5 7.0625 -1.5 7.0625 -3 5 C-2.01 3.35 -1.02 1.7 0 0 Z " fill="#393939" transform="translate(103,52)"/>
<path d="M0 0 C1.98 0.99 3.96 1.98 6 3 C6 6.63 6 10.26 6 14 C5.67 14 5.34 14 5 14 C4.67 11.03 4.34 8.06 4 5 C2.02 5.66 0.04 6.32 -2 7 C-2 6.01 -2 5.02 -2 4 C-1.34 3.67 -0.68 3.34 0 3 C-0.99 2.67 -1.98 2.34 -3 2 C-2.01 1.34 -1.02 0.68 0 0 Z " fill="#64A7C1" transform="translate(51,42)"/>
<path d="M0 0 C0.33 0 0.66 0 1 0 C1 2.64 1 5.28 1 8 C2.65 8 4.3 8 6 8 C6 8.66 6 9.32 6 10 C7.32 10 8.64 10 10 10 C10.66 11.65 11.32 13.3 12 15 C8.04 13.02 4.08 11.04 0 9 C0 6.03 0 3.06 0 0 Z " fill="#5F9FB7" transform="translate(21,128)"/>
<path d="M0 0 C0.33 0 0.66 0 1 0 C1.06058594 0.98742187 1.12117188 1.97484375 1.18359375 2.9921875 C1.26738281 4.27351563 1.35117188 5.55484375 1.4375 6.875 C1.51871094 8.15117188 1.59992188 9.42734375 1.68359375 10.7421875 C1.79206027 13.88300152 1.79206027 13.88300152 3 16 C2.979375 16.825 2.95875 17.65 2.9375 18.5 C2.71706155 21.17653739 2.71706155 21.17653739 5 23 C4.34 23.33 3.68 23.66 3 24 C2.01 23.34 1.02 22.68 0 22 C-0.34057617 19.75341797 -0.34057617 19.75341797 -0.29296875 16.9921875 C-0.28330078 16.00605469 -0.27363281 15.01992187 -0.26367188 14.00390625 C-0.23853516 12.97136719 -0.21339844 11.93882813 -0.1875 10.875 C-0.17396484 9.83472656 -0.16042969 8.79445313 -0.14648438 7.72265625 C-0.11105228 5.14792373 -0.06165221 2.5742167 0 0 Z " fill="#95C2D6" transform="translate(100,114)"/>
<path d="M0 0 C0.93065133 2.60582371 1.14917407 3.64198224 0.0625 6.25 C-0.4634375 7.11625 -0.4634375 7.11625 -1 8 C-1.33 7.34 -1.66 6.68 -2 6 C-3.32 6.99 -4.64 7.98 -6 9 C-6.33 7.35 -6.66 5.7 -7 4 C-4.69 2.68 -2.38 1.36 0 0 Z " fill="#5AA1C6" transform="translate(136,115)"/>
<path d="M0 0 C0 0.66 0 1.32 0 2 C1.32 2.33 2.64 2.66 4 3 C2 4 2 4 -1.3125 3.5 C-4.66919311 3.04485517 -6.78134286 3.12218442 -10 4 C-10.33 3.01 -10.66 2.02 -11 1 C-6.92630576 -1.03684712 -4.41062136 -1.0257259 0 0 Z " fill="#7DBED7" transform="translate(124,108)"/>
<path d="M0 0 C0.66 0 1.32 0 2 0 C2 5.61 2 11.22 2 17 C1.01 16.67 0.02 16.34 -1 16 C-0.67 10.72 -0.34 5.44 0 0 Z " fill="#555555" transform="translate(191,74)"/>
<path d="M0 0 C0 0.66 0 1.32 0 2 C0.99 2 1.98 2 3 2 C3.33 3.98 3.66 5.96 4 8 C2.68 8 1.36 8 0 8 C-0.2475 7.360625 -0.495 6.72125 -0.75 6.0625 C-1.81562433 3.81258459 -1.81562433 3.81258459 -4.125 3.25 C-5.053125 3.12625 -5.053125 3.12625 -6 3 C-3.375 0 -3.375 0 0 0 Z " fill="#70BAD4" transform="translate(24,74)"/>
<path d="M0 0 C0 3 0 3 -1.3125 4.6875 C-3 6 -3 6 -6 6 C-6 6.66 -6 7.32 -6 8 C-6.99 8.33 -7.98 8.66 -9 9 C-9.99 8.34 -10.98 7.68 -12 7 C-8.04 4.69 -4.08 2.38 0 0 Z " fill="#8DBBD0" transform="translate(38,104)"/>
<path d="M0 0 C1.57043101 0.01330874 3.14079971 0.03717648 4.7109375 0.0703125 C5.51273438 0.07933594 6.31453125 0.08835937 7.140625 0.09765625 C9.12252273 0.12125027 11.10426731 0.15712185 13.0859375 0.1953125 C13.0859375 0.5253125 13.0859375 0.8553125 13.0859375 1.1953125 C7.6409375 1.6903125 7.6409375 1.6903125 2.0859375 2.1953125 C1.7559375 3.1853125 1.4259375 4.1753125 1.0859375 5.1953125 C0.4259375 5.1953125 -0.2340625 5.1953125 -0.9140625 5.1953125 C-0.9140625 4.5353125 -0.9140625 3.8753125 -0.9140625 3.1953125 C-2.5640625 2.8653125 -4.2140625 2.5353125 -5.9140625 2.1953125 C-3.9140625 0.1953125 -3.9140625 0.1953125 0 0 Z " fill="#5F5F5F" transform="translate(245.9140625,18.8046875)"/>
<path d="M0 0 C0.99 0.33 1.98 0.66 3 1 C0.25851004 4.01563895 -2.21344355 5.85210625 -6.359375 6.1953125 C-7.54273438 6.16050781 -7.54273438 6.16050781 -8.75 6.125 C-9.54921875 6.10695312 -10.3484375 6.08890625 -11.171875 6.0703125 C-11.77515625 6.04710937 -12.3784375 6.02390625 -13 6 C-13 5.34 -13 4.68 -13 4 C-11.96875 3.896875 -10.9375 3.79375 -9.875 3.6875 C-5.99038243 3.18754269 -5.99038243 3.18754269 -2.75 1.375 C-1.38875 0.694375 -1.38875 0.694375 0 0 Z " fill="#DDF4FA" transform="translate(48,141)"/>
<path d="M0 0 C1.32 0.33 2.64 0.66 4 1 C3.67 1.33 3.34 1.66 3 2 C4.32 2.66 5.64 3.32 7 4 C7 2.68 7 1.36 7 0 C7.66 0 8.32 0 9 0 C9 2.64 9 5.28 9 8 C6.03 6.35 3.06 4.7 0 3 C0 2.01 0 1.02 0 0 Z " fill="#5B9FBD" transform="translate(48,128)"/>
<path d="M0 0 C-2.10187532 1.31629567 -4.20631676 2.62812997 -6.3125 3.9375 C-7.20485352 4.49727539 -7.20485352 4.49727539 -8.11523438 5.06835938 C-10.72747744 6.68824194 -13.07221173 8.02407058 -16 9 C-16 8.01 -16 7.02 -16 6 C-15.36191406 5.73445313 -14.72382812 5.46890625 -14.06640625 5.1953125 C-13.24011719 4.84210938 -12.41382812 4.48890625 -11.5625 4.125 C-10.73878906 3.77695313 -9.91507812 3.42890625 -9.06640625 3.0703125 C-6.84253285 2.1755063 -6.84253285 2.1755063 -6 0 C-2.49056604 -1.24528302 -2.49056604 -1.24528302 0 0 Z " fill="#E0F8FD" transform="translate(117,105)"/>
<path d="M0 0 C1.98 0 3.96 0 6 0 C6.5625 1.9375 6.5625 1.9375 7 4 C6 5 6 5 2.9375 5.0625 C1.4834375 5.0315625 1.4834375 5.0315625 0 5 C0 3.35 0 1.7 0 0 Z " fill="#F8F8F8" transform="translate(102,76)"/>
<path d="M0 0 C2.3125 1.25 2.3125 1.25 3.3125 3.25 C4.3025 3.58 5.2925 3.91 6.3125 4.25 C4.609375 5.3984375 4.609375 5.3984375 2.3125 6.25 C-0.046875 5.3515625 -0.046875 5.3515625 -2.4375 3.875 C-3.23671875 3.39289063 -4.0359375 2.91078125 -4.859375 2.4140625 C-5.46265625 2.02992188 -6.0659375 1.64578125 -6.6875 1.25 C-3.0234375 -0.84375 -3.0234375 -0.84375 0 0 Z " fill="#80BDD1" transform="translate(110.6875,137.75)"/>
<path d="M0 0 C0.66 0.33 1.32 0.66 2 1 C2 1.66 2 2.32 2 3 C1.34 3 0.68 3 0 3 C-0.33 9.6 -0.66 16.2 -1 23 C-1.33 23 -1.66 23 -2 23 C-2 15.74 -2 8.48 -2 1 C-1.34 0.67 -0.68 0.34 0 0 Z " fill="#8BBBD1" transform="translate(22,113)"/>
<path d="M0 0 C4 1 4 1 4 1 Z M0 1 C-0.33 1.99 -0.66 2.98 -1 4 C-2.66072849 4.68132451 -4.327767 5.34742127 -6 6 C-6.99 7.485 -6.99 7.485 -8 9 C-8.99 8.67 -9.98 8.34 -11 8 C-4.36842105 1 -4.36842105 1 0 1 Z " fill="#70BDDF" transform="translate(34,58)"/>
<path d="M0 0 C0 1.65 0 3.3 0 5 C-1.98 5.99 -1.98 5.99 -4 7 C-4.99 6.01 -5.98 5.02 -7 4 C-3.375 0 -3.375 0 0 0 Z " fill="#89C4DE" transform="translate(48,28)"/>
<path d="M0 0 C3.63 0 7.26 0 11 0 C11 0.99 11 1.98 11 3 C9.02 3.33 7.04 3.66 5 4 C5 3.34 5 2.68 5 2 C3.35 1.67 1.7 1.34 0 1 C0 0.67 0 0.34 0 0 Z " fill="#424242" transform="translate(163,19)"/>
<path d="M0 0 C0.70125 0.309375 1.4025 0.61875 2.125 0.9375 C4.99229446 2.13519726 4.99229446 2.13519726 8.1875 2.3125 C9.5796875 2.6528125 9.5796875 2.6528125 11 3 C12.375 5.5625 12.375 5.5625 13 8 C9.51329166 6.8905928 6.22515763 5.73662334 3 4 C3 3.34 3 2.68 3 2 C2.01 2 1.02 2 0 2 C0 1.34 0 0.68 0 0 Z " fill="#81C6E4" transform="translate(83,127)"/>
<path d="M0 0 C0.66 0 1.32 0 2 0 C2 4.62 2 9.24 2 14 C1.67 14 1.34 14 1 14 C0.67 11.03 0.34 8.06 0 5 C-1.32 4.67 -2.64 4.34 -4 4 C-2.68 3.34 -1.36 2.68 0 2 C0 1.34 0 0.68 0 0 Z " fill="#6FB2C8" transform="translate(95,114)"/>
<path d="M0 0 C0.53625 0.226875 1.0725 0.45375 1.625 0.6875 C1.295 2.0075 0.965 3.3275 0.625 4.6875 C-2.75 4.8125 -2.75 4.8125 -6.375 4.6875 C-7.035 4.0275 -7.695 3.3675 -8.375 2.6875 C-2.95961538 -0.38942308 -2.95961538 -0.38942308 0 0 Z " fill="#8EC5D4" transform="translate(40.375,35.3125)"/>
<path d="M0 0 C3.96 1.98 7.92 3.96 12 6 C7.71372952 7.07156762 7.33924618 7.0365854 3.75 5.0625 C3.04359375 4.68222656 2.3371875 4.30195313 1.609375 3.91015625 C1.07828125 3.60980469 0.5471875 3.30945313 0 3 C0 2.01 0 1.02 0 0 Z " fill="#E0F7FC" transform="translate(20,136)"/>
<path d="M0 0 C1.32 0.66 2.64 1.32 4 2 C-0.95 4.475 -0.95 4.475 -6 7 C-6.33 6.01 -6.66 5.02 -7 4 C-1.921875 0.6796875 -1.921875 0.6796875 0 0 Z " fill="#D4F7FC" transform="translate(27,107)"/>
<path d="M0 0 C0 2.64 0 5.28 0 8 C-0.66 7.01 -1.32 6.02 -2 5 C-2 5.99 -2 6.98 -2 8 C-2.99 7.67 -3.98 7.34 -5 7 C-5.33 6.01 -5.66 5.02 -6 4 C-1.125 0 -1.125 0 0 0 Z " fill="#60A7C3" transform="translate(37,80)"/>
<path d="M0 0 C0.33 0.99 0.66 1.98 1 3 C0.67 3.66 0.34 4.32 0 5 C-3.63 5 -7.26 5 -11 5 C-11 4.67 -11 4.34 -11 4 C-10.21625 3.87625 -9.4325 3.7525 -8.625 3.625 C-5.85942178 3.20882007 -5.85942178 3.20882007 -4 1 C-1.875 0.375 -1.875 0.375 0 0 Z " fill="#292929" transform="translate(315,56)"/>
<path d="M0 0 C5.23518706 1.43967644 9.63026009 3.81696611 14 7 C14 7.33 14 7.66 14 8 C12.02 8 10.04 8 8 8 C8 7.34 8 6.68 8 6 C7.01 5.67 6.02 5.34 5 5 C5 4.34 5 3.68 5 3 C2.525 2.01 2.525 2.01 0 1 C0 0.67 0 0.34 0 0 Z " fill="#E7FBFD" transform="translate(104,139)"/>
<path d="M0 0 C1.65 1.32 3.3 2.64 5 4 C4.34 4 3.68 4 3 4 C2.87625 5.299375 2.7525 6.59875 2.625 7.9375 C2.4140625 10.15234375 2.4140625 10.15234375 2 12 C1.01 12.495 1.01 12.495 0 13 C0 8.71 0 4.42 0 0 Z " fill="#79C2D7" transform="translate(62,115)"/>
<path d="M0 0 C0.66 0 1.32 0 2 0 C2.66 2.31 3.32 4.62 4 7 C2.02 7 0.04 7 -2 7 C-1.34 4.69 -0.68 2.38 0 0 Z " fill="#D3D3D3" transform="translate(297,78)"/>
<path d="M0 0 C4.10839064 1.45002023 7.50344613 3.3979134 11 6 C11 6.66 11 7.32 11 8 C9.35 7.67 7.7 7.34 6 7 C6 6.34 6 5.68 6 5 C5.34 5 4.68 5 4 5 C4 4.34 4 3.68 4 3 C2.35 2.67 0.7 2.34 -1 2 C-0.67 1.34 -0.34 0.68 0 0 Z " fill="#89B8C8" transform="translate(18,69)"/>
<path d="M0 0 C0.33 0.66 0.66 1.32 1 2 C-0.32 3.65 -1.64 5.3 -3 7 C-4.65 6.67 -6.3 6.34 -8 6 C-5.38485683 3.87961365 -2.80362384 1.86908256 0 0 Z " fill="#64A4BF" transform="translate(69,109)"/>
<path d="M0 0 C0.66 0 1.32 0 2 0 C3.38226016 2.76452033 3.09525387 5.0461363 3.0625 8.125 C3.05347656 9.22070312 3.04445313 10.31640625 3.03515625 11.4453125 C3.02355469 12.28835937 3.01195312 13.13140625 3 14 C2.67 14 2.34 14 2 14 C2 11.36 2 8.72 2 6 C1.34 6 0.68 6 0 6 C0 5.01 0 4.02 0 3 C-0.66 2.67 -1.32 2.34 -2 2 C-1.34 2 -0.68 2 0 2 C0 1.34 0 0.68 0 0 Z " fill="#6CB6D3" transform="translate(16,93)"/>
<path d="M0 0 C0.33 0 0.66 0 1 0 C1.06058594 0.77085938 1.12117188 1.54171875 1.18359375 2.3359375 C1.26738281 3.33882813 1.35117188 4.34171875 1.4375 5.375 C1.51871094 6.37273437 1.59992188 7.37046875 1.68359375 8.3984375 C1.84965626 10.97927613 1.84965626 10.97927613 3 13 C5.52733235 13.65555119 5.52733235 13.65555119 8 14 C6.1875 15.0625 6.1875 15.0625 4 16 C3.01 15.67 2.02 15.34 1 15 C-0.44207941 12.11584117 -0.09394887 9.58278472 -0.0625 6.375 C-0.05347656 5.18648438 -0.04445313 3.99796875 -0.03515625 2.7734375 C-0.02355469 1.85820313 -0.01195313 0.94296875 0 0 Z " fill="#333333" transform="translate(118,75)"/>
<path d="M0 0 C2.475 0.495 2.475 0.495 5 1 C5 1.99 5 2.98 5 4 C4.34 4.66 3.68 5.32 3 6 C2.67 5.34 2.34 4.68 2 4 C1.67 5.98 1.34 7.96 1 10 C0.67 10 0.34 10 0 10 C0 6.7 0 3.4 0 0 Z " fill="#DCDCDC" transform="translate(233,19)"/>
<path d="M0 0 C6.875 3.875 6.875 3.875 8 5 C8.04063832 6.66617115 8.042721 8.33388095 8 10 C7.01 9.67 6.02 9.34 5 9 C5 7.68 5 6.36 5 5 C4.34 5 3.68 5 3 5 C1.375 3.625 1.375 3.625 0 2 C0 1.34 0 0.68 0 0 Z " fill="#8FBFD3" transform="translate(69,6)"/>
<path d="M0 0 C2.5654594 2.5654594 2.54046087 4.47686668 3 8 C1.35 8 -0.3 8 -2 8 C-1.47731534 5.23723823 -0.89130413 2.6739124 0 0 Z " fill="#DDDDDD" transform="translate(243,77)"/>
<path d="M0 0 C0.33 2.31 0.66 4.62 1 7 C-2.465 5.02 -2.465 5.02 -6 3 C-3.375 0 -3.375 0 0 0 Z " fill="#7CBACC" transform="translate(51,32)"/>
<path d="M0 0 C3.125 0.375 3.125 0.375 6 1 C4 3 4 3 1.9375 4 C-0.16865601 4.84589942 -0.16865601 4.84589942 -1 7 C-1.66 7 -2.32 7 -3 7 C-2.25 2.25 -2.25 2.25 0 0 Z " fill="#292929" transform="translate(239,21)"/>
<path d="M0 0 C1.78409802 3.06246747 2.22880021 5.22079273 2.125 8.75 C2.10695313 9.54921875 2.08890625 10.3484375 2.0703125 11.171875 C2.04710938 11.77515625 2.02390625 12.3784375 2 13 C-0.07493465 11.30729015 -0.93070018 10.47024878 -1.328125 7.7734375 C-1.30234375 6.98195313 -1.2765625 6.19046875 -1.25 5.375 C-1.23453125 4.57835937 -1.2190625 3.78171875 -1.203125 2.9609375 C-1 1 -1 1 0 0 Z " fill="#71BFDD" transform="translate(73,11)"/>
<path d="M0 0 C-0.99 0.33 -1.98 0.66 -3 1 C-2.67 1.99 -2.34 2.98 -2 4 C-7.75 4.125 -7.75 4.125 -10 3 C-9.67 2.34 -9.34 1.68 -9 1 C-8.01 1.33 -7.02 1.66 -6 2 C-6 1.34 -6 0.68 -6 0 C-3 -1 -3 -1 0 0 Z " fill="#59AACF" transform="translate(80,108)"/>
<path d="M0 0 C2.5654594 2.5654594 2.54046087 4.47686668 3 8 C1.35 8 -0.3 8 -2 8 C-1.34 5.36 -0.68 2.72 0 0 Z " fill="#E2E2E2" transform="translate(335,77)"/>
<path d="M0 0 C0 0.66 0 1.32 0 2 C-1.7015625 2.433125 -1.7015625 2.433125 -3.4375 2.875 C-4.613125 3.24625 -5.78875 3.6175 -7 4 C-7.33 4.66 -7.66 5.32 -8 6 C-8.99 6 -9.98 6 -11 6 C-10 3 -10 3 -7.75 1.3125 C-4.8635748 -0.06511203 -3.14826764 -0.26985151 0 0 Z " fill="#81B2C8" transform="translate(61,1)"/>
<path d="M0 0 C1.81612488 0.95144598 3.62781081 1.91136933 5.4375 2.875 C6.44683594 3.40867188 7.45617187 3.94234375 8.49609375 4.4921875 C11 6 11 6 12 8 C7.15409462 7.55946315 3.51858133 5.25494123 0 2 C0 1.34 0 0.68 0 0 Z " fill="#E4F9FE" transform="translate(64,138)"/>
<path d="M0 0 C0.33 0.99 0.66 1.98 1 3 C-3.75 6 -3.75 6 -6 6 C-6 4.68 -6 3.36 -6 2 C-4.02 1.34 -2.04 0.68 0 0 Z " fill="#76ACC3" transform="translate(24,106)"/>
<path d="M0 0 C0.33 0 0.66 0 1 0 C1.05416188 1.60379341 1.09286638 3.20811406 1.125 4.8125 C1.14820313 5.70582031 1.17140625 6.59914063 1.1953125 7.51953125 C1 10 1 10 -1 13 C-1.99 13 -2.98 13 -4 13 C-4 12.34 -4 11.68 -4 11 C-3.34 11 -2.68 11 -2 11 C-0.98617037 7.3791799 -0.50102309 3.72188582 0 0 Z " fill="#74B7CE" transform="translate(36,88)"/>
<path d="M0 0 C0.66 0 1.32 0 2 0 C2 0.66 2 1.32 2 2 C2.99 2.33 3.98 2.66 5 3 C4.360625 3.12375 3.72125 3.2475 3.0625 3.375 C2.381875 3.58125 1.70125 3.7875 1 4 C0.67 4.66 0.34 5.32 0 6 C-0.99 6 -1.98 6 -3 6 C-1.125 1.125 -1.125 1.125 0 0 Z " fill="#60A7D0" transform="translate(64,32)"/>
<path d="M0 0 C0.99 0.33 1.98 0.66 3 1 C2.67 2.32 2.34 3.64 2 5 C2.66 5 3.32 5 4 5 C4 5.66 4 6.32 4 7 C2.68 7.33 1.36 7.66 0 8 C0 5.36 0 2.72 0 0 Z " fill="#7BC7E9" transform="translate(39,136)"/>
<path d="M0 0 C0.99 0.33 1.98 0.66 3 1 C2.43628586 4.26954202 1.50037734 5.82575883 -1 8 C-1.33 6.35 -1.66 4.7 -2 3 C-1.34 2.67 -0.68 2.34 0 2 C0 1.34 0 0.68 0 0 Z " fill="#2E2E2E" transform="translate(286,43)"/>
<path d="M0 0 C2 1 2 1 3 3 C-1.625 6 -1.625 6 -5 6 C-5 5.34 -5 4.68 -5 4 C-4.34 4 -3.68 4 -3 4 C-3 3.34 -3 2.68 -3 2 C-2.01 2 -1.02 2 0 2 C0 1.34 0 0.68 0 0 Z " fill="#E6F8FB" transform="translate(26,38)"/>
<path d="M0 0 C3.36939433 0.33693943 5.42910583 1.88819408 8 4 C6 5 6 5 4.0546875 4.44140625 C3.33539063 4.15136719 2.61609375 3.86132812 1.875 3.5625 C1.15054688 3.27503906 0.42609375 2.98757812 -0.3203125 2.69140625 C-1.15175781 2.34916016 -1.15175781 2.34916016 -2 2 C-1.34 1.34 -0.68 0.68 0 0 Z " fill="#84B7CC" transform="translate(41,37)"/>
<path d="M0 0 C1.5625 1.625 1.5625 1.625 3 4 C2.6875 7.25 2.6875 7.25 2 10 C1.67 10 1.34 10 1 10 C0.67 8.02 0.34 6.04 0 4 C-2.64 3.67 -5.28 3.34 -8 3 C-8 2.67 -8 2.34 -8 2 C-5.36 2 -2.72 2 0 2 C0 1.34 0 0.68 0 0 Z " fill="#4C4C4C" transform="translate(288,26)"/>
<path d="M0 0 C1.65 0.33 3.3 0.66 5 1 C3.8125 2.5 3.8125 2.5 2 4 C-0.6875 4.1875 -0.6875 4.1875 -3 4 C-2.01 2.68 -1.02 1.36 0 0 Z " fill="#85B9CF" transform="translate(51,66)"/>
<path d="M0 0 C-0.33 0.66 -0.66 1.32 -1 2 C-3.32156597 2.40729228 -5.6568787 2.74438677 -8 3 C-7.67 2.01 -7.34 1.02 -7 0 C-4.3333581 -1.33332095 -2.83319697 -0.67102033 0 0 Z " fill="#75B1C9" transform="translate(31,43)"/>
<path d="M0 0 C-2.85306797 2.32472205 -5.54074837 3.7508258 -9 5 C-8.625 3.0625 -8.625 3.0625 -8 1 C-5.29120665 -0.35439668 -2.99066732 -0.06501451 0 0 Z " fill="#E4FBFD" transform="translate(38,35)"/>
<path d="M0 0 C0.99 0 1.98 0 3 0 C3 2.64 3 5.28 3 8 C2.01 8 1.02 8 0 8 C0 5.36 0 2.72 0 0 Z " fill="#80B6CC" transform="translate(134,128)"/>
<path d="M0 0 C0.33 0 0.66 0 1 0 C1 3.63 1 7.26 1 11 C-0.32 10.34 -1.64 9.68 -3 9 C-2.34 9 -1.68 9 -1 9 C-0.67 6.03 -0.34 3.06 0 0 Z " fill="#74B2C2" transform="translate(56,56)"/>
<path d="M0 0 C1.9375 0.3125 1.9375 0.3125 4 1 C4.33 1.99 4.66 2.98 5 4 C4.01 4.495 4.01 4.495 3 5 C2.34 4.34 1.68 3.68 1 3 C0.34 3.99 -0.32 4.98 -1 6 C-1.33 4.68 -1.66 3.36 -2 2 C-1.34 2 -0.68 2 0 2 C0 1.34 0 0.68 0 0 Z " fill="#393939" transform="translate(179,33)"/>
<path d="M0 0 C1.27875 -0.061875 2.5575 -0.12375 3.875 -0.1875 C4.95394531 -0.23970703 4.95394531 -0.23970703 6.0546875 -0.29296875 C6.69664063 -0.19628906 7.33859375 -0.09960938 8 0 C8.66 0.99 9.32 1.98 10 3 C8.7625 2.79375 7.525 2.5875 6.25 2.375 C2.88090165 1.93892876 0.87158079 1.96596361 -2 4 C-1.34 2.68 -0.68 1.36 0 0 Z " fill="#D0F0F8" transform="translate(54,0)"/>
<path d="M0 0 C2.35953094 2.35953094 2.49141413 3.77895617 3 7 C0.525 6.01 0.525 6.01 -2 5 C-1.34 3.35 -0.68 1.7 0 0 Z " fill="#5399B8" transform="translate(36,139)"/>
<path d="M0 0 C0.66 0 1.32 0 2 0 C1.34 3.96 0.68 7.92 0 12 C-0.33 12 -0.66 12 -1 12 C-1.02698189 10.37509046 -1.04638757 8.75005367 -1.0625 7.125 C-1.07410156 6.22007813 -1.08570312 5.31515625 -1.09765625 4.3828125 C-1 2 -1 2 0 0 Z " fill="#6DACC9" transform="translate(22,116)"/>
<path d="M0 0 C0.33 0.99 0.66 1.98 1 3 C-1.475 4.485 -1.475 4.485 -4 6 C-4.99 5.34 -5.98 4.68 -7 4 C-4.69 2.68 -2.38 1.36 0 0 Z " fill="#64B2D8" transform="translate(27,101)"/>
<path d="M0 0 C2.0625 0.4375 2.0625 0.4375 4 1 C3.67 2.32 3.34 3.64 3 5 C2.01 5 1.02 5 0 5 C-0.5625 3.0625 -0.5625 3.0625 -1 1 C-0.67 0.67 -0.34 0.34 0 0 Z " fill="#7EBBDF" transform="translate(24,77)"/>
<path d="M0 0 C0.33 0.99 0.66 1.98 1 3 C1.66 3.33 2.32 3.66 3 4 C0.69 4.66 -1.62 5.32 -4 6 C-3.6875 4.125 -3.6875 4.125 -3 2 C-2.01 1.34 -1.02 0.68 0 0 Z " fill="#62B0CE" transform="translate(15,74)"/>
<path d="M0 0 C0.66 0.33 1.32 0.66 2 1 C0.35 2.65 -1.3 4.3 -3 6 C-4.32 5.34 -5.64 4.68 -7 4 C-1.7265625 0.77734375 -1.7265625 0.77734375 0 0 Z " fill="#E8FAFD" transform="translate(51,70)"/>
<path d="M0 0 C1.65 0 3.3 0 5 0 C4.67 1.32 4.34 2.64 4 4 C2.35 3.67 0.7 3.34 -1 3 C-0.67 2.01 -0.34 1.02 0 0 Z " fill="#96C6DB" transform="translate(34,72)"/>
<path d="M0 0 C0.33 0.99 0.66 1.98 1 3 C2.32 3.66 3.64 4.32 5 5 C1.7 5 -1.6 5 -5 5 C-4.01 4.67 -3.02 4.34 -2 4 C-0.79117904 1.99983534 -0.79117904 1.99983534 0 0 Z " fill="#292929" transform="translate(191,56)"/>
<path d="M0 0 C0.66 0.33 1.32 0.66 2 1 C2 1.66 2 2.32 2 3 C2.66 3.33 3.32 3.66 4 4 C1.525 5.485 1.525 5.485 -1 7 C-1.33 6.01 -1.66 5.02 -2 4 C-1.34 4 -0.68 4 0 4 C0 2.68 0 1.36 0 0 Z " fill="#3D3D3D" transform="translate(178,40)"/>
<path d="M0 0 C1.32 0 2.64 0 4 0 C4 0.66 4 1.32 4 2 C4.66 2 5.32 2 6 2 C5.67 2.99 5.34 3.98 5 5 C2.5 3.625 2.5 3.625 0 2 C0 1.34 0 0.68 0 0 Z " fill="#7AB1C6" transform="translate(65,137)"/>
<path d="M0 0 C1.98 0.99 3.96 1.98 6 3 C5.67 3.66 5.34 4.32 5 5 C4.01 4.67 3.02 4.34 2 4 C1.67 4.66 1.34 5.32 1 6 C1 4.68 1 3.36 1 2 C0.34 1.67 -0.32 1.34 -1 1 C-0.67 0.67 -0.34 0.34 0 0 Z " fill="#69A9C0" transform="translate(87,109)"/>
<path d="M0 0 C-0.99 0.495 -0.99 0.495 -2 1 C-2 1.66 -2 2.32 -2 3 C-2.99 3.33 -3.98 3.66 -5 4 C-5.99 3.34 -6.98 2.68 -8 2 C-4.77208445 -0.1519437 -3.71599191 -0.20086443 0 0 Z " fill="#7FBACA" transform="translate(34,109)"/>
<path d="M0 0 C2.64 0 5.28 0 8 0 C6.25 1.5625 6.25 1.5625 4 3 C1.75 2.6875 1.75 2.6875 0 2 C0 1.34 0 0.68 0 0 Z " fill="#6DBADB" transform="translate(113,109)"/>
<path d="M0 0 C2.64 0.33 5.28 0.66 8 1 C5.42786866 2.61949011 4.32330841 3.04408751 1.25 2.625 C0.5075 2.41875 -0.235 2.2125 -1 2 C-0.67 1.34 -0.34 0.68 0 0 Z " fill="#2C2C2C" transform="translate(238,56)"/>
</svg>
